<?xml version="1.0" encoding="utf-8"?>
<!DOCTYPE svg PUBLIC "-//W3C//DTD SVG 1.1//EN" "http://www.w3.org/Graphics/SVG/1.1/DTD/svg11.dtd">
<svg version="1.1"
	 id="svg2" xmlns:dc="http://purl.org/dc/elements/1.1/" xmlns:cc="http://creativecommons.org/ns#" xmlns:rdf="http://www.w3.org/1999/02/22-rdf-syntax-ns#" xmlns:svg="http://www.w3.org/2000/svg" xmlns:sodipodi="http://sodipodi.sourceforge.net/DTD/sodipodi-0.dtd" xmlns:inkscape="http://www.inkscape.org/namespaces/inkscape" sodipodi:docname="Italia_settentrionale.svg" sodipodi:docbase="/home/amery/projects/wikiproyecto:italia" inkscape:version="0.46" sodipodi:version="0.32" inkscape:output_extension="org.inkscape.output.svg.inkscape"
	 xmlns="http://www.w3.org/2000/svg" xmlns:xlink="http://www.w3.org/1999/xlink" x="0px" y="0px" width="734.789px"
	 height="867.25px" viewBox="0 0 734.789 867.25" enable-background="new 0 0 734.789 867.25" xml:space="preserve">
<g id="layer3" transform="translate(-2.000026,-112.0499)" inkscape:label="Paese" inkscape:groupmode="layer">
	<g id="g3094" transform="matrix(0.948312,0,0,0.948312,-83.88148,51.95865)">
		<path id="path2940" d="M456.094,63.375c-1.402,0.016-7.76,2.175-14.782,5.032c-13.79,5.611-16.306,6.288-16.906,4.594
			c-0.183-0.517-3.719-1.325-7.844-1.782c-6.462-0.714-8.986-0.476-18.25,1.751c-12.66,3.041-16.335,5.642-16.562,11.718
			c-0.213,5.653-2.996,8.705-8.282,9.031c-4.69,0.29-10.907-2.602-10.907-5.062c0-0.714-1.365-2.122-3.063-3.124
			c-2.708-1.6-3.631-1.646-7.5-0.562c-2.423,0.678-5.698,0.972-7.281,0.656c-2.797-0.559-2.908-0.426-3.781,4.625
			c-0.625,3.609-0.48,7.724,0.469,13.469c0.751,4.551,1.093,8.938,0.782,9.75c-1.306,3.4-13.877,0.294-13.032-3.219
			c1.499-6.229-7.533-4.016-12.156,2.969c-1.5,2.268-2.934,5.937-3.188,8.188c-0.434,3.848-0.229,4.27,3.532,6.875
			c3.61,2.502,4.068,3.322,4.687,8.282c0.763,6.1-0.291,8.374-3.874,8.374c-2.642,0-5.594-4.617-5.594-8.749
			c0-1.682-0.843-3.735-2.001-4.781c-1.926-1.743-2.285-1.751-7.343-0.157c-3.171,0.999-6.403,2.896-7.999,4.688
			c-6.257,7.022-17.639,0.858-17.657-9.563c-0.005-3.333-0.518-4.461-2.937-6.25c-2.662-1.968-3.308-2.059-6.687-0.938
			c-2.991,0.992-3.936,1.918-4.626,4.594c-0.689,2.676-0.516,3.6,0.844,4.594c3.878,2.836-1.038,18.364-7.063,22.282
			c-4.863,3.161-12.16,18.273-10.28,21.281c0.697,1.116,2.036,2.257,3,2.563c3.465,1.1,0.923,7.99-2.688,7.281
			c-2.084-0.409-2.862-1.661-4.594-7.531c-0.891-3.02-1.883-4.321-3.594-4.75c-2.495-0.626-3.164-3.366-1.281-5.25
			c0.597-0.596,0.934-2.139,0.751-3.437c-0.433-3.049-6.477-6.131-9.188-4.688c-3.001,1.599-7.226-0.889-12.75-7.5
			c-4.439-5.313-4.984-6.441-4.376-9.125c0.382-1.683,0.766-5.987,0.844-9.563c0.139-6.399,0.103-6.499-2.625-6.812
			c-2.88-0.331-9.75,3.19-9.75,5c0,0.558-2.127,4.901-4.72,9.656c-3.12,5.726-4.601,9.581-4.405,11.438
			c0.194,1.851-1.004,4.983-3.532,9.219c-3.648,6.113-5.921,7.932-10.844,8.687c-1.138,0.175-2.609,1.743-3.437,3.625
			c-1.243,2.826-1.825,3.216-4,2.688c-1.399-0.34-4.23-1.721-6.281-3.063c-5.12-3.349-9.495-3.151-14.751,0.656
			c-3.517,2.548-4.844,2.966-7.656,2.438c-2.564-0.481-4.115-0.136-6.281,1.407c-3.897,2.774-10.621,2.814-12.094,0.063
			c-1.442-2.695-3.627-2.545-4.344,0.312c-0.66,2.63-4.985,5.015-7.594,4.187c-0.957-0.304-2.935,0.406-4.406,1.563
			c-2.175,1.711-2.656,2.902-2.656,6.594c0,4.041,0.625,5.252,6,11.75c3.332,4.028,6.001,8.242,6.001,9.469
			c0,1.214,1.104,3.193,2.438,4.405c9.616,8.748,8.872,7.497,8.25,14.157c-0.312,3.341-0.851,6.854-1.219,7.813
			c-0.368,0.959-4.347,3.584-8.844,5.812c-6.983,3.461-8.567,3.909-10.875,3.032c-2.124-0.808-3.698-0.612-7.313,0.937
			c-2.528,1.083-5.22,1.969-6,1.969c-0.78,0-1.438,0.674-1.438,1.499c0,0.825,0.362,1.5,0.813,1.5c0.45,0,2.599,3.974,4.749,8.844
			c4.5,10.188,8.685,14.156,14.938,14.156c5.868,0,7.5,1.414,7.5,6.406c0,2.643-0.703,5.262-1.812,6.718
			c-1,1.312-3.653,5.607-5.907,9.563l-4.093,7.187l1.063,7.313c0.833,5.622,1.874,8.372,4.437,11.937
			c3.75,5.219,4.29,5.641,17.093,12.751c10.499,5.83,15.047,6.48,22.375,3.156c4.799-2.178,8.358-2.66,7.313-0.969
			c-0.366,0.59,0.308,2.106,1.499,3.375c2.017,2.147,2.078,2.573,0.751,5.75c-0.785,1.877-4.019,6.202-7.188,9.624l-5.781,6.219
			l1.25,4.469l1.281,4.5h7.75c5.477,0,8.072-0.432,8.907-1.438c0.649-0.783,3.069-1.709,5.374-2.095
			c7.967-1.328,20.687-9.101,20.687-12.624c0-2.322,6.501-15.415,8.156-16.438c0.654-0.404,2.562-0.999,4.25-1.344
			c3.137-0.642,5.044-3.215,6.031-8.125c0.763-3.791,6.48-9.167,13.813-12.969l6.437-3.344l14.407,3.781
			c17.535,4.581,19.499,5.289,23.375,8.625c9.963,8.575,21.759,15.813,31.499,19.312c5.612,2.016,11.016,3.657,12.032,3.657
			c2.314,0,10.519,9.169,12.968,14.499c1.3,2.828,2.05,7.729,2.563,16.751c0.399,7.021,1.11,13.013,1.593,13.313
			c0.484,0.299,0.875,1.59,0.875,2.843c0,1.291,1.759,4.08,4.032,6.469c7.395,7.774,11.419,19.225,10.28,29.187
			c-0.412,3.611,0.01,5.637,2.032,9.624c2.323,4.586,2.935,5.095,6.657,5.594c5.582,0.749,7.34,2.357,6.594,6.094
			c-0.492,2.458-0.04,3.595,2.593,6.313c1.765,1.821,3.669,3.312,4.219,3.312c4.684,0,19.594,17.316,19.594,22.75
			c0,2.417-0.456,3.189-2.125,3.437c-5.228,0.779-4.855,6.352,0.563,8.282c2.336,0.832,3.008,0.633,4.594-1.468
			c2.33-3.09,7.057-2.905,13.218,0.531c2.346,1.308,5.817,3.157,7.718,4.124c4.288,2.181,11.034,9.028,11.063,11.219
			c0.011,0.897,1.481,4.551,3.281,8.125c2.951,5.862,3.625,6.52,6.657,6.813c5.412,0.523,17.403,9.235,19.938,14.469
			c1.161,2.398,2.094,5.045,2.094,5.906c0,0.862,1.462,2.688,3.25,4.063c5.914,4.551,15.208,14.005,18.812,19.156
			c3.348,4.784,4.091,5.279,13,8.344c8.226,2.83,9.994,3.866,13.656,7.999c2.313,2.613,4.339,5.65,4.5,6.75
			c0.214,1.458,1.177,2.081,3.594,2.313c1.823,0.175,3.895-0.17,4.594-0.751c0.698-0.58,3.035-1.649,5.187-2.406
			c3.552-1.249,4.645-1.154,11.906,0.969c8.355,2.443,13.034,2.942,13.906,1.53c1.056-1.708,6.44,0.139,9.312,3.188
			c3.395,3.606,10.162,14.347,14.593,23.156c1.66,3.3,3.585,7.125,4.282,8.5c1.001,1.977,2.161,2.562,5.531,2.812
			c2.344,0.175,5.231-0.183,6.406-0.812c1.83-0.979,2.934-0.621,7.75,2.657c7.23,4.92,7.674,6.163,3.531,9.594
			c-6.291,5.208-6.813,5.756-6.813,7.25c0,2.05,2.822,1.869,7.125-0.438c2.532-1.356,4.756-1.747,7.532-1.375
			c2.875,0.386,4.309,0.078,5.281-1.094c0.732-0.882,2.181-1.594,3.25-1.594c1.069,0,2.88-0.494,4-1.094
			c3.046-1.629,7.315,2.929,11.969,12.751c4.317,9.111,4.445,9.837,2.438,13.937c-3.027,6.181-2.419,8.846,2.75,11.875
			c2.386,1.398,4.974,2.526,5.75,2.531c0.776,0.005,5.299,3.605,10.062,8c4.764,4.395,9.489,7.999,10.501,7.999
			c1.011,0,3.12-1.575,4.656-3.499c4.9-6.141,10.829-3.92,16.032,6c2.84,5.418,3.441,7.831,4.344,17
			c0.62,6.3,4.706,15.365,10.343,23c3.611,4.891,5.969,12.277,5.969,18.625c0,5.718,3.108,19.246,5.469,23.813
			c0.936,1.809,2.572,3.505,3.625,3.781c2.521,0.659,2.603,7.382,0.157,12.281c-1.708,3.42-1.855,3.491-7.001,3.156
			c-4.549-0.297-5.951,0.096-10.281,2.875c-4.282,2.747-6.969,5.54-6.969,7.281c0,0.247,0.863,0.664,1.906,0.937
			c1.044,0.274,2.591,1.571,3.437,2.875c1.339,2.062,1.373,3.108,0.219,8.031c-1.945,8.301-6.182,15.505-9.844,16.781
			c-3.924,1.368-4.719,1.318-4.719-0.25c0-0.712-1.733-1.74-3.875-2.312c-3.721-0.994-4.578-0.727-18.813,6.374L642,856.126
			l-3.969-1.657c-2.177-0.914-6.321-1.652-9.219-1.656c-4.508-0.007-5.997,0.52-10.312,3.688c-8.932,6.557-25.94,9.67-40.782,7.5
			c-7.925-1.16-8.215-1.118-12.469,1.375c-6.942,4.068-11.053,3.528-23.281-3.032c-8.356-4.482-10.406-5.982-10.406-7.749
			c0-1.21-0.649-3.125-1.438-4.25c-1.35-1.929-1.851-1.98-8.968-0.969c-6.07,0.862-8.088,1.582-10.281,3.781
			c-2.139,2.145-2.483,3.017-1.531,3.969c0.667,0.667,1.219,1.57,1.219,2c0,1.034-7.489,4.812-9.532,4.812
			c-0.883,0-3.732-2.193-6.344-4.875l-4.75-4.875l-6.093,3.625c-3.364,1.994-7.004,4.75-8.062,6.125
			c-2.6,3.376-4.62,9.798-4.313,13.656c0.164,2.058-0.305,3.482-1.344,4.063c-1.396,0.782-1.442,1.565-0.375,6.188
			c1.046,4.534,2.068,6.06,7.25,10.75l6.031,5.468l8.781-0.687c8.356-0.654,8.969-0.58,12.531,1.874
			c2.058,1.419,5.743,3.021,8.219,3.563c3.502,0.766,5.498,2.095,9,5.969c4.185,4.63,16.722,12.157,20.25,12.157
			c0.715,0,3.183,1.977,5.468,4.405c2.346,2.493,6.948,5.761,10.593,7.5c5.966,2.847,7.041,3.053,13.845,2.5
			c6.657-0.541,7.773-0.367,11.844,1.937c6.189,3.503,11.719,9.122,15.406,15.657c2.897,5.132,3.762,5.81,12.969,10.406
			c9.01,4.497,10.178,4.864,13.531,3.969c4.365-1.165,13.041,0.647,14.593,3.063c1.263,1.964,5.382,2.032,6.125,0.094
			c0.31-0.807-0.184-3.432-1.094-5.812c-1.558-4.079-1.545-4.615,0.187-9.281c1.471-3.962,2.889-5.635,7.062-8.438
			c5.215-3.501,5.216-3.51,4.969-8.5c-0.202-4.081-0.591-5.065-2.218-5.374c-4.309-0.821-11.396-15.544-11.656-24.251
			c-0.163-5.423,0.093-6.29,2.406-8.219c2.796-2.331,5.719-10.716,5.719-16.406c0-3.593,3.867-9.985,13.593-22.5
			c3.365-4.331,6.057-9.165,7.5-13.501c1.237-3.714,2.432-6.075,2.657-5.25c0.223,0.825,0.881,2.479,1.468,3.688
			c0.613,1.261,0.834,5.01,0.531,8.781c-0.494,6.156-0.332,6.735,2.281,9.532c1.533,1.64,3.383,3.028,4.125,3.062
			c18.09,0.83,21.437,0.704,23.156-0.843c2.461-2.215,4.417-6.844,5.156-12.219c0.861-6.264,10.875-18.457,15.937-19.406
			c2.041-0.383,5.061-2.258,7.501-4.625c3.996-3.878,4.105-4.125,4.093-10.719c-0.007-3.713-0.645-9.106-1.407-11.968
			c-2.013-7.563,0.239-11.743,9.251-17.188c9.163-5.536,14.85-7.181,20.093-5.781c2.24,0.598,4.062,1.439,4.062,1.875
			c0,0.437,0.658,0.812,1.469,0.812c3.757,0,5.99-11.483,3-15.438c-1.818-2.402-2.011-17.507-0.313-24.249
			c1.086-4.315,1.016-4.696-1.25-6.438c-1.32-1.015-3.981-2.563-5.906-3.468c-1.925-0.905-6.939-4.299-11.157-7.531
			c-6.513-4.992-8.288-5.875-11.812-5.875c-2.282,0-5.032-0.463-6.094-1.032c-2.092-1.119-5.938-7.897-5.938-10.469
			c0-0.872,1.825-4.884,4.032-8.906c3.285-5.985,3.962-8.183,3.812-12.126c-0.161-4.244,0.2-5.14,2.875-7.406
			c3.108-2.632,6.282-7.868,6.282-10.343c0-0.761,1.8-3.953,4-7.094c2.2-3.14,4-6.032,4-6.437c0-1.263,7.335-8.356,9.469-9.156
			c1.117-0.419,5.017-0.341,8.656,0.187l6.625,0.968l-2.406,2.563c-1.317,1.42-2.24,3.031-2.063,3.562s3.907,3.028,8.282,5.563
			c7.049,4.086,8.562,4.618,13.437,4.468c7.595-0.232,19.932,1.558,22.563,3.282c3.419,2.24,8.785,14.794,8.219,19.218
			c-0.257,2.014,0.046,4.904,0.688,6.438c1.617,3.871,10.144,10.706,13.406,10.75c1.453,0.02,3.75,0.683,5.125,1.469
			c1.375,0.786,3.513,1.449,4.749,1.468c2.088,0.033,2.25-0.401,2.25-6c0-6.844,1.559-11.32,5.376-15.438
			c3.483-3.758,3.321-6.758-0.782-15.656c-3.558-7.719-7.668-12.29-20.594-22.844c-4.896-3.998-6.776-6.279-7.656-9.251
			c-1.392-4.705-2.925-5.957-10.781-8.844c-3.279-1.204-10.259-4.192-15.5-6.625c-7.976-3.702-10.905-5.782-18.031-12.719
			c-9.151-8.909-11.843-10.424-32.032-18.25c-18.483-7.164-22.722-9.091-37.5-16.969c-7.7-4.104-14.988-7.717-16.219-8.031
			c-1.231-0.313-3.627-2.143-5.312-4.062c-2.531-2.882-3.001-4.18-2.751-7.562c0.288-3.895,0.577-4.259,6.156-7.094
			c3.226-1.639,7.389-4.521,9.251-6.437c3.898-4.013,4.306-7.421,1.687-13.75c-2.223-5.376-5.956-6.608-16.312-5.406
			c-13.38,1.552-45.823,2.37-48.25,1.218c-1.227-0.581-3.659-1.594-5.406-2.25c-1.749-0.656-3.413-1.783-3.688-2.499
			c-0.275-0.718-2.885-2.096-5.812-3.063c-9.61-3.178-14.844-7.477-14.844-12.219c0-1.835-2.331-3.506-6.5-4.656
			c-1.107-0.306-8.817-7.196-17.124-15.313c-16.385-16.008-21.025-22.549-25.375-35.749c-1.269-3.85-3.146-9.111-4.156-11.688
			c-1.011-2.577-1.844-6.284-1.844-8.219c0-3.4-5.385-19.032-12.5-36.219c-1.896-4.578-3.227-8.933-2.938-9.687
			c0.612-1.592-5.196-7.642-7.5-7.813c-2.757-0.203-3.474-0.418-7.311-2.124c-4.261-1.895-10.887-7.115-21.469-16.969
			c-10.216-9.512-14.774-12.584-19.844-13.344c-3.931-0.589-5.362-1.657-13.094-9.781c-4.771-5.014-9.589-10.68-10.718-12.594
			c-5.088-8.622-10.468-39.928-8.469-49.25c1.138-5.305,1.763-5.795,3.625-2.812c0.687,1.1,2.154,2,3.25,2
			c1.552,0,2.018-0.717,2.124-3.25c0.103-2.449,0.231-2.676,0.563-0.937c0.662,3.467,2.489,2.194,5.594-3.875
			c3.295-6.444,3.322-11.289,0.094-11.75c-2.986-0.426-8.216-6.2-15.812-17.469l-6.594-9.781l4-7.938
			c3.575-7.111,4.706-8.435,10.625-12.406c5.743-3.854,6.945-4.311,8.999-3.376c1.776,0.809,2.112,1.413,1.313,2.376
			c-0.586,0.705-1.657,1.057-2.376,0.781c-2.405-0.923-13.562,11.853-13.562,15.531c0,2.219,1.691,0.996,3.313-2.406
			c0.918-1.926,2.414-3.5,3.313-3.5c0.898,0,6.401-2.555,12.249-5.688c21.696-11.621,27.406-14.312,30.376-14.312
			c3.023,0,3.04-0.041,2.438-4.438c-0.475-3.462-0.214-4.911,1.249-6.718l1.875-2.313l6.781,1.812
			c3.731,0.995,7.687,2.422,8.781,3.188c1.789,1.252,1.817,1.454,0.313,2.031c-2.14,0.822-2.188,3.437-0.063,3.437
			c0.888,0,3.362-0.985,5.5-2.187c3.02-1.698,3.875-2.8,3.875-4.906c0-1.49,0.651-2.948,1.438-3.25c2.189-0.84,9.127,4.723,12,9.624
			c3.167,5.405,3.166,5.719,0.062,5.719c-1.555,0-2.499,0.566-2.499,1.499c0,2.55,9.81,2.015,12.687-0.687
			c2.363-2.221,3.012-4.371,1.469-4.969c-0.474-0.183-2.242-2.56-3.906-5.25c-2.543-4.111-4.028-5.295-9.375-7.563
			c-4.807-2.039-6.615-3.383-7.343-5.437c-0.72-2.031-0.601-2.94,0.406-3.563c0.743-0.459,1.575-3.128,1.844-5.938
			c0.447-4.654,0.291-5.093-1.594-5.093c-1.137,0-2.348,0.45-2.688,1c-0.946,1.532-3.191,1.185-3.874-0.593
			c-0.826-2.152,1.924-6.603,5.562-8.969c4.555-2.961,6.737-10.423,3.063-10.469c-0.963-0.011-3.724-0.928-6.156-2.031
			c-3.029-1.374-4.765-1.673-5.469-0.969c-1.633,1.633-2.344,1.231-3.437-1.906c-0.953-2.733-0.698-3.241,3.657-7.313
			c2.571-2.404,7.025-5.694,9.906-7.313c4.866-2.733,7.251-5.982,7.251-9.875c0-1.809-12.121-4.583-22.75-5.188
			c-10.011-0.569-31.812-4.544-36.25-6.625c-1.376-0.645-3.625-1.318-5.001-1.468c-18.17-1.993-20.933-3.26-25.031-11.469
			c-3.105-6.22-7.482-11.813-9.219-11.813c-1.485,0-3.319-2.324-4.5-5.718c-1.182-3.399-1.093-3.591,3.25-5.813
			c2.386-1.22,3.283-6.251,1.25-7.031C456.265,63.357,456.187,63.374,456.094,63.375z M472.719,353.063
			c0.193-0.009,0.341,0.028,0.469,0.155c0.338,0.338,0.351,1.756,0,3.156c-0.689,2.745-3.059,3.447-3.938,1.156
			C468.744,356.212,471.37,353.128,472.719,353.063z"/>
		<path id="path2894" d="M437.518,967.858c-2.733-3.838-1.705-6.424,2.555-6.424c3.662,0,7.471,4.728,5.87,7.286
			C444.007,971.812,440.045,971.407,437.518,967.858z"/>
		<path id="path2890" d="M459.933,874.433c-0.909-2.369,1.079-3.857,4.132-3.09c1.778,0.446,2.533,1.222,2.315,2.377
			C465.936,876.057,460.775,876.629,459.933,874.433z"/>
		<path id="path2888" d="M443.572,869.993c0-2.496,1.964-3.725,3.097-1.937c1.458,2.302,1.012,3.878-1.097,3.878
			C444.259,871.934,443.572,871.268,443.572,869.993z"/>
		<path id="path2886" d="M632.622,835.529c-0.708-1.322-0.991-2.882-0.63-3.467c0.361-0.584-0.261-1.635-1.382-2.336
			c-2.385-1.489-2.646-4.043-0.586-5.752c2.649-2.199,5.035-0.83,5.187,2.975c0.077,1.916,0.64,4.753,1.25,6.3
			c1.527,3.873,1.403,4.685-0.721,4.685C634.733,837.933,633.33,836.852,632.622,835.529z"/>
		<path id="path2882" d="M624.1,822.578c-2.465-1.802-1.315-4.644,1.88-4.644c2.971,0,3.683,0.932,2.926,3.827
			C628.253,824.258,626.747,824.514,624.1,822.578z"/>
		<path id="path2880" d="M515.572,809.469c0-0.805,0.906-1.95,2.014-2.543c1.576-0.843,2.141-0.752,2.589,0.416
			c0.316,0.823,0.282,1.967-0.074,2.544C519.122,811.469,515.572,811.142,515.572,809.469z"/>
		<path id="path2878" d="M648.079,802.945c-0.85-1.373,1.246-4.011,3.184-4.011c2.034,0,1.255,4.394-0.849,4.795
			C649.503,803.903,648.452,803.55,648.079,802.945z"/>
		<path id="path2876" d="M232.681,793.538c-1.785-0.99-3.093-1.06-5.17-0.275c-3.627,1.369-5.046,0.167-8.081-6.844
			c-2.874-6.641-5.053-7.121-6.741-1.485c-2.025,6.758-5.618,4.337-8.606-5.799c-0.852-2.888,0.976-5.201,4.11-5.201
			c2.987,0,2.973-0.531-0.123-4.589c-3.019-3.96-3.065-4.59-0.499-6.912c2.451-2.218,2.582-5.075,0.289-6.358
			c-2.167-1.212-1.931-5.883,0.783-15.558c1.519-5.414,1.832-8.583,1.329-13.445c-0.505-4.872-0.336-6.566,0.72-7.235
			c2.04-1.291,2.878-1.094,2.878,0.68c0,0.871,0.561,1.396,1.247,1.169c1.494-0.498,2.811-7.315,2.045-10.578
			c-0.512-2.175-0.873-2.281-5.564-1.636l-5.016,0.69l0.646-4.865c0.355-2.675,1.545-7.231,2.643-10.124
			c3.115-8.198,2.746-18.306-1.014-27.772c-5.515-13.883-7.551-17.176-10.931-17.671c-2.326-0.342-3.171-0.008-3.629,1.435
			c-0.327,1.035-1.12,1.708-1.761,1.497c-1.578-0.519-2.096-4.697-0.751-6.042c1.323-1.323,1.428-5.931,0.166-7.235
			c-0.561-0.58-0.309-4.07,0.649-8.95c2.254-11.498,3.717-12.865,7.511-7.021c2.57,3.957,6.104,5.521,12.474,5.521
			c5,0,7.639-1.147,10.68-4.646c1.287-1.48,3.661-2.654,6.106-3.019c3.819-0.572,8.5-3.655,8.5-5.599
			c0-2.132,9.64-11.958,14.128-14.401c3.487-1.898,4.872-3.26,4.872-4.793c0-2.643,1.79-4.541,4.281-4.541
			c1.034,0,6.694,2.462,12.578,5.471c10.344,5.292,10.787,5.656,13.419,11.023c3.374,6.877,3.372,7.399-0.028,10.183
			c-2.148,1.759-2.372,2.259-1.021,2.287c2.887,0.06,10.771,17.725,10.771,24.132c0,2.542,0.806,4.708,2.5,6.721
			c1.375,1.634,2.5,3.722,2.5,4.639c0,3.491-3.332,11.651-5.157,12.627c-3.287,1.759-7.843,8.972-7.843,12.415
			c0,1.9,1.211,4.987,2.981,7.6c3.506,5.176,3.815,9.56,1.519,21.563c-0.825,4.311-1.5,11.83-1.5,16.709
			c0,6.317-0.892,12.798-3.096,22.501c-1.703,7.495-3.222,15.817-3.376,18.492c-0.313,5.432-1.436,6.598-6.375,6.62
			c-2.459,0.011-4.482-0.984-7.629-3.755c-3.562-3.135-5.693-4.062-12.654-5.504c-4.604-0.955-8.708-1.733-9.121-1.73
			c-1.093,0.006-0.918,7.125,0.316,12.877c1.293,6.03,0.076,8.959-6.005,14.453C239.338,795.139,236.599,795.71,232.681,793.538z"/>
		<path id="path2872" d="M197.186,774.469c-2.238-3.416-2.059-4.109,1.441-5.559c4.021-1.665,5.415-0.296,4.525,4.449
			C202.342,777.674,199.619,778.181,197.186,774.469z"/>
		<path id="path2868" d="M583.571,653.613c0-0.854,1.253-1.636,3.042-1.899c2.375-0.348,2.975-0.099,2.741,1.137
			C588.961,654.928,583.571,655.64,583.571,653.613z"/>
		<path id="path2866" d="M561.771,640.734c-1.61-1.61-1.512-3.345,0.289-5.146c2.903-2.903,10.133,1.911,8.016,5.337
			C569.209,642.328,563.228,642.191,561.771,640.734z"/>
		<path id="path2862" d="M502.128,625.024c-0.829-1.341,0.368-3.847,2.165-4.536c2.137-0.821,2.489-0.24,1.72,2.828
			C505.367,625.884,503.238,626.82,502.128,625.024z"/>
		<path id="path2860" d="M196.003,614.35c0.75-2.985,4.947-9.915,6.64-10.961c1.52-0.939,2.894,1.352,2.913,4.858
			c0.011,2.185-0.396,2.743-1.831,2.5c-2.387-0.405-5.154,1.908-5.154,4.309c0,1.059-0.701,1.878-1.609,1.878
			C195.733,616.934,195.507,616.327,196.003,614.35z"/>
		<path id="path2856" d="M329.572,499.041c0-1.967,2.505-3.53,4.089-2.551c0.5,0.309,0.91,1.436,0.91,2.502
			c0,1.405-0.692,1.941-2.5,1.941C330.286,500.934,329.572,500.393,329.572,499.041z"/>
		<path id="path2854" d="M368.691,498.561c-2.035-2.166-2.091-2.513-0.646-3.957c2.037-2.037,4.178-1.197,4.967,1.948
			C374.186,501.229,372.105,502.196,368.691,498.561z"/>
		<path id="path2852" d="M315.586,477.684c0.026-2.111,1.7-4.044,2.873-3.319c1.952,1.207,1.299,4.569-0.888,4.569
			C316.471,478.934,315.578,478.372,315.586,477.684z"/>
		<path id="path2850" d="M336.471,464.379c-2.513-2.513-2.627-2.529-6.978-1.014c-7.893,2.749-11.922,1.485-11.922-3.74
			c0-2.391,5.824-4.647,9.073-3.515c4.594,1.601,8.246,0.671,9.751-2.484c2.24-4.695,4.621-3.136,4.984,3.263
			c0.327,5.767-0.354,10.045-1.601,10.045C339.365,466.934,337.876,465.785,336.471,464.379z"/>
		<path id="path2846" d="M298.172,439.335c-0.704-1.835,1.331-6.568,3.065-7.132c1.793-0.583,2.537,3.193,1.206,6.117
			C301.101,441.261,299.094,441.738,298.172,439.335z"/>
	</g>
</g>
<g id="layer4" transform="translate(-2.000026,-112.0499)" inkscape:label="Regioni" inkscape:groupmode="layer">
	<path id="path2902" fill="#E8F2AD" d="M63.759,213.32c-5.313,1.354-9.802,6.954-15.825,5.334c-5.442,2.571-11.99,4.529-17.633,1.63
		c-2.721,1.465-4.626,4.26-8.238,3.793c-3.934,0.438-7.61,4.156-5.245,8.238c2.784,7.396,10.431,12.129,11.942,20.122
		c1.742,2.853,6.421,3.214,7.201-0.829c2.369,1.081,2.181,5.512,5.364,2.785c6.318-1.545,12.173-4.757,17.484-8.09
		c7.049-1.134,14.792,4.075,21.011-1.274c4.678-3.889,1.782-10.284,0.267-14.995c-0.883-4.695-0.146-11.463-6.075-12.743
		C70.255,216.654,67.624,212.944,63.759,213.32z"/>
	<path id="path2910" fill="#E8F2AD" d="M76.352,371.394c0.759,0.63,3.199,1.312,5.424,1.515c3.16,0.289,4.319-0.021,5.296-1.414
		c0.688-0.981,2.201-1.921,3.363-2.087c1.941-0.277,2.104-0.783,2.002-6.194c-0.099-5.224,0.145-6.061,2.146-7.371
		c1.241-0.813,2.258-2.312,2.258-3.332s1.088-2.566,2.419-3.438c1.691-1.108,2.12-1.885,1.423-2.582
		c-1.418-1.418-1.248-2.566,0.908-6.102l1.897-3.112l3.501,2.379c3.054,2.074,3.692,2.207,4.989,1.033
		c0.835-0.756,3.977-1.474,7.162-1.638c4.019-0.206,5.602-0.647,5.425-1.515c-0.137-0.673,0.203-2.069,0.757-3.104
		c1.598-2.985,7.359-1.981,9.898,1.725l1.984,2.896l2.117-2.376c1.225-1.375,2.71-2.148,3.525-1.836
		c1.688,0.647,1.818-0.665,0.309-3.083c-0.896-1.434-0.707-2.314,1.013-4.729c1.162-1.632,2.434-2.967,2.826-2.967
		c0.392,0,2.146,1.28,3.899,2.845c1.752,1.564,3.734,2.845,4.404,2.845s1.689,0.88,2.264,1.954c1.931,3.606,3.896,1.818,4.196-3.817
		c0.152-2.851-0.051-5.838-0.45-6.639c-0.4-0.8-1.177-2.598-1.727-3.995c-0.695-1.768-1.808-2.633-3.658-2.845
		c-2.015-0.231-2.736-0.88-2.977-2.676c-0.175-1.304-1.307-3.438-2.516-4.741c-1.209-1.305-2.351-3.225-2.537-4.268
		c-0.197-1.105-1.226-2.023-2.465-2.2c-2.276-0.325-4.479-3.4-3.532-4.932c0.953-1.543-1.109-1.042-2.473,0.602
		c-0.987,1.189-2.315,1.406-5.971,0.973c-5.05-0.598-6.473-1.466-6.767-4.129c-0.289-2.629-1.617-5.384-3.146-6.53
		c-0.766-0.574-1.479-1.854-1.584-2.846c-0.105-0.99-0.676-2.993-1.268-4.45c-1.941-4.788-2.011-6.791-0.352-10.152
		c1.288-2.609,2.285-3.382,4.664-3.612c2.591-0.251,3.266,0.158,4.691,2.845c1.27,2.394,1.749,2.744,2.02,1.479
		c0.194-0.913,0.75-1.659,1.232-1.659c0.483,0,0.879-0.839,0.879-1.863c0-1.025,0.854-2.32,1.896-2.879
		c2.729-1.46,2.337-4.446-0.981-7.477c-1.898-1.735-3.072-3.895-3.45-6.348c-0.315-2.046-0.885-4.146-1.266-4.668
		s-0.976-2.518-1.321-4.437c-0.346-1.918-1.895-4.844-3.442-6.501c-3.178-3.401-3.401-4.511-1.439-7.136
		c0.907-1.213,1.193-3.027,0.84-5.321c-0.486-3.152-0.124-3.921,3.84-8.159c3.205-3.426,4.376-5.445,4.376-7.544
		c0-2.462-0.425-2.95-3.024-3.47c-2.088-0.418-4.873-2.584-8.991-6.994c-4.984-5.336-5.97-6.943-5.984-9.755
		c-0.01-1.852,0.435-3.819,0.988-4.372c0.553-0.554,0.873-3.089,0.711-5.634c-0.32-5.028-2.312-6.557-5.018-3.852
		c-0.773,0.774-1.76,1.552-2.189,1.729c-1.84,0.756-9.683,16.894-9.683,19.924c0,2.05-1.439,5.622-4.03,10.004
		c-3.937,6.657-6.441,8.8-10.288,8.8c-3.02,0-4.747,5.354-4.038,12.514c0.326,3.288,1.142,6.619,1.813,7.401
		c0.747,0.87,1.158,3.604,1.059,7.036l-0.163,5.613l-5.197,2.685c-5.511,2.846-9.335,3.347-12.523,1.641
		c-3.752-2.008-8.323-1.259-11.579,1.896c-1.668,1.617-4.015,2.94-5.215,2.94c-1.201,0-3.634,0.688-5.407,1.529
		c-1.773,0.842-4.506,1.343-6.07,1.113c-3.242-0.477-3.495,0.227-1.292,3.589c1.196,1.825,1.421,3.644,0.978,7.889
		c-0.947,9.062-1.578,9.94-10.268,14.29c-6.473,3.239-8.458,3.826-11.316,3.344c-3.75-0.634-10.345,1.5-10.345,3.347
		c0,0.583,1.435,4.165,3.189,7.962c3.826,8.283,8.131,12.13,13.188,11.79c1.871-0.126,4.38,0.483,5.79,1.407
		c2.15,1.409,2.488,2.291,2.488,6.498c0,3.628-0.563,5.614-2.213,7.802c-1.218,1.613-3.742,5.708-5.611,9.099l-3.397,6.163
		l1.174,6.718c0.799,4.569,2.005,7.806,3.773,10.123c2.995,3.928,3.782,4.486,15.553,11.021c10.012,5.559,12.407,5.862,20.44,2.591
		c5.878-2.395,9.405-2.296,8.987,0.251c-0.139,0.847,0.102,2.104,0.535,2.796c0.618,0.987,1.269,0.805,3.03-0.851
		C74.532,370.664,75.243,370.474,76.352,371.394z"/>
	<path id="path2908" fill="#E8F2AD" d="M168.53,320.902c-0.449-2.395-0.13-3.692,1.317-5.361c2.414-2.783,2.418-4.417,0.013-5.704
		c-2.041-1.093-2.451-3.765-0.985-6.414c0.501-0.906,2.037-4.125,3.413-7.153c2.273-5.003,2.986-5.721,7.791-7.846
		c3.696-1.634,5.488-2.017,5.949-1.271c0.489,0.791,1.184,0.788,2.678-0.012c1.724-0.923,2.018-0.821,2.018,0.698
		c0,0.978,1.066,2.264,2.37,2.858c1.901,0.866,2.371,0.822,2.371-0.221c0-1.593,2.569-2.716,3.345-1.462
		c0.939,1.52,4.263,1.011,4.913-0.753c1.095-2.966,4.07-4.154,4.07-1.626c0,1.167,0.38,1.252,1.916,0.43
		c2.453-1.312,3.447-0.651,5.467,3.64c1.606,3.411,1.755,3.484,7.162,3.55c3.036,0.037,5.807,0.511,6.156,1.054
		c1.033,1.604,6.191,3.791,7.982,3.385c1.094-0.248,1.966,0.437,2.565,2.014c0.634,1.667,2.111,2.749,4.89,3.582
		c3.975,1.19,3.988,1.186,7.019-2.32c3.497-4.046,7.874-4.869,8.719-1.64c0.319,1.221,1.613,2.084,3.715,2.479
		c1.774,0.333,3.472,1.003,3.772,1.49c0.306,0.494,1.926,0.072,3.666-0.955c4.808-2.837,8.741-3.405,11.418-1.651
		c2.842,1.861,3.18,1.861,7.619,0.007l3.588-1.499l-3.645-3.242c-2.005-1.783-3.994-3.242-4.421-3.242s-0.775-1.113-0.775-2.473
		c0-1.997-0.319-2.334-1.66-1.752c-3.384,1.469-6.373,0.969-7.337-1.229c-0.515-1.174-1.524-2.134-2.244-2.134
		c-0.854,0-1.131-0.678-0.799-1.948c0.378-1.444-0.085-2.175-1.786-2.822c-1.263-0.479-2.296-1.31-2.296-1.845
		c0-0.534-0.602-0.972-1.338-0.972c-0.735,0-2.393-1.253-3.682-2.785c-1.689-2.007-2.904-2.639-4.352-2.26
		c-1.16,0.303-2.008,0.078-2.008-0.534c0-0.582-0.641-1.059-1.423-1.059c-1.07,0-1.423-1.146-1.423-4.631
		c0-3.923-0.308-4.712-2.013-5.157c-1.696-0.444-1.927-1.021-1.465-3.667c0.301-1.728,0.167-5.061-0.298-7.408
		c-0.818-4.128-0.674-4.546,4.444-12.802c2.91-4.694,5.881-9.495,6.601-10.669c1.283-2.091,1.224-2.134-2.979-2.134
		c-3.008,0-4.29,0.391-4.29,1.305c0,1.209-3.848,2.489-7.48,2.489c-2.029,0-4.657-6.117-4.657-10.84
		c0-2.386-0.533-3.977-1.518-4.527c-1.911-1.069-1.961-3.947-0.095-5.496c0.782-0.649,1.422-1.915,1.422-2.814
		c0-0.898,0.814-2.37,1.811-3.271c3.048-2.759,4.018-17.696,1.34-20.654c-1.818-2.01-0.464-4.263,2.846-4.736
		c1.653-0.236,2.024-0.861,1.86-3.139c-0.238-3.305-3.279-6.163-6.559-6.163c-1.519,0-2.649-0.796-3.366-2.371
		c-0.812-1.783-1.807-2.371-4.011-2.372c-4.621-0.002-9.611-2.919-9.342-5.46c0.449-4.226-5.924-1.175-9.008,4.312
		c-2.066,3.677-2.87,8.735-1.387,8.735c0.405,0,2.062,1.211,3.683,2.69c2.462,2.248,3.058,3.657,3.629,8.587
		c0.811,6.979-0.716,9.594-5.588,9.574c-2.318-0.01-3.396-0.725-5.134-3.406c-1.21-1.867-2.235-4.638-2.278-6.156
		s-0.587-3.184-1.208-3.699c-1.734-1.438-9.329,1.536-12.229,4.79c-1.96,2.199-3.284,2.793-6.23,2.793
		c-2.058,0-4.812-0.487-6.121-1.084c-3.469-1.58-7.192-7.705-7.192-11.83c0-3.988-1.967-5.976-5.958-6.021
		c-3.315-0.038-4.902,3.271-2.93,6.107c2.09,3.005,1.515,8.547-1.602,15.428c-1.982,4.38-3.86,7.014-5.927,8.316
		c-2.012,1.269-4.211,4.287-6.564,9.01l-3.54,7.102l2.828,2.439c3.2,2.76,3.471,4.475,1.354,8.569
		c-1.238,2.394-1.96,2.807-4.476,2.561c-3.128-0.306-4.833-2.503-5.855-7.545c-0.314-1.551-1.774-3.258-3.819-4.464
		c-3.421-2.019-3.52-2.645-1.188-7.507c1.146-2.389,0.472-3.435-2.864-4.442c-1.977-0.598-2.134-0.352-2.134,3.352
		c0,3.433-0.606,4.644-4.31,8.603c-3.857,4.125-4.246,4.944-3.706,7.823c0.416,2.215,0.122,3.949-0.943,5.575
		c-1.483,2.265-1.438,2.47,1.099,5.078c3.529,3.626,4.699,6.311,5.862,13.445c0.772,4.737,1.577,6.548,3.858,8.678
		c1.585,1.48,2.882,3.588,2.882,4.683s0.462,1.99,1.027,1.99c1.92,0,0.266,2.315-2.043,2.861c-1.341,0.316-2.3,1.229-2.301,2.191
		c-0.002,0.906-0.461,1.954-1.021,2.328s-1.293,1.427-1.63,2.34c-0.943,2.558-4.191,2.015-5.605-0.938
		c-1.83-3.818-4.232-3.85-5.791-0.075c-1.108,2.685-1.101,3.452,0.054,5.238c0.743,1.15,1.095,2.508,0.78,3.017
		c-0.314,0.508-0.138,1.192,0.393,1.52c0.53,0.328,0.964,1.638,0.964,2.911c0,1.272,0.396,2.314,0.879,2.314
		c1.114,0,3.862,5.441,3.862,7.648c0,2.442,7.076,3.539,9.38,1.454c0.921-0.834,2.602-1.517,3.734-1.517
		c1.655,0,2.059,0.558,2.059,2.846c0,2.107,0.442,2.845,1.707,2.845c2.124,0,3.983,1.781,3.983,3.817
		c0,0.848,1.066,2.544,2.37,3.769c1.304,1.226,2.371,3.191,2.371,4.37c0,1.625,0.622,2.215,2.578,2.442
		c2.447,0.285,2.954,0.914,5.976,7.413c0.364,0.782,1.256,1.422,1.981,1.422c0.725,0,1.66,0.533,2.077,1.186
		C168.634,324.963,169.14,324.152,168.53,320.902z"/>
	<path id="path2916" fill="#E8F2AD" d="M341.22,402.059c1.391-3.22,2.528-7.677,2.601-10.194c0.045-1.558,0.617-1.852,3.208-1.646
		c1.999,0.158,4.167-0.471,5.918-1.718c1.521-1.083,3.729-1.991,4.907-2.019c1.179-0.028,3.074-0.485,4.212-1.017
		c2.823-1.317,5.043-0.276,5.043,2.365c0,2.409,2.773,5.322,4.515,4.741c0.608-0.202,1.381,0.729,1.717,2.07
		c0.713,2.837,2.354,3.127,4.411,0.778c1.886-2.152,2.723-7.823,1.154-7.823c-1.519,0-16.944-16.248-19.957-21.021
		c-5.283-8.368-10.783-38.922-8.756-48.642c0.549-2.629,1.293-5.1,1.654-5.49c0.36-0.391,0.481-2.204,0.269-4.03
		c-0.382-3.276-0.447-3.32-4.909-3.32c-3.497,0-4.817-0.438-5.823-1.937c-1.029-1.531-2.492-1.989-6.991-2.188
		c-6.51-0.287-12.833,0.824-14.235,2.503c-1.735,2.076-6.995,5.415-8.531,5.415c-0.828,0-2.53-1.105-3.783-2.457
		c-1.857-2.005-2.808-2.34-5.164-1.822c-2.032,0.446-3.33,0.19-4.384-0.862c-1.588-1.589-6.103-2.073-6.103-0.656
		c0,1.631-8.053,2.142-10.853,0.689c-2.854-1.481-3.491-1.384-9.977,1.519c-2.993,1.339-4.671,1.622-5.722,0.966
		c-0.817-0.511-2.816-1.221-4.44-1.577c-1.782-0.392-3.146-1.381-3.437-2.491c-0.702-2.684-2.756-2.253-4.927,1.033
		c-1.043,1.579-2.874,3.122-4.069,3.429c-3.272,0.841-10.808-1.562-11.345-3.619c-0.271-1.033-1.317-1.737-2.582-1.737
		c-1.171,0-3.788-1.144-5.816-2.542c-2.831-1.951-4.876-2.558-8.798-2.607c-5.244-0.068-5.161-0.012-7.74-5.282
		c-0.749-1.531-4.957-1.51-5.484,0.028c-0.174,0.506-1.135,0.92-2.134,0.92c-1,0-1.817,0.427-1.817,0.948
		c0,1.465-2.47,1.122-3.844-0.533c-1.115-1.345-1.308-1.345-2.06,0c-0.456,0.814-1.363,1.482-2.016,1.482
		c-1.708,0-6.29-2.242-6.299-3.082c-0.004-0.392-0.86-0.712-1.904-0.712c-1.043,0-1.896,0.435-1.896,0.966
		c0,0.541-1.728,0.854-3.927,0.711c-3.714-0.24-4.036-0.047-5.927,3.552c-1.101,2.094-2.793,5.648-3.762,7.9
		c-1.75,4.065-1.748,4.103,0.237,5.493c2.402,1.684,2.598,5.299,0.404,7.493c-1.081,1.081-1.527,2.894-1.386,5.631
		c0.209,4.027,0.201,4.037-3.621,4.648c-2.106,0.337-3.83,1.145-3.83,1.796c0,1.545,3.591,3.772,4.84,3.001
		c0.533-0.33,1.819,0.17,2.859,1.11c1.566,1.418,2.208,1.512,3.755,0.546c1.533-0.958,1.963-0.908,2.419,0.279
		c0.305,0.794,1.134,1.444,1.842,1.444c2.819,0,4.298,6.392,2.013,8.704c-0.682,0.688-1.492,1.925-1.803,2.745
		c-0.479,1.268,0.172,1.433,4.32,1.09c4.143-0.341,5.25-0.062,7.292,1.833c3.11,2.888,4.544,2.468,8.059-2.358
		c1.584-2.175,3.792-4.086,4.906-4.247c3.188-0.462,9.917,3.371,9.573,5.453c-0.316,1.915,2.652,5.746,4.453,5.746
		c1.941,0,7.048,2.899,7.952,4.516c0.556,0.992,2.332,1.618,4.979,1.755c2.965,0.152,4.483,0.764,5.428,2.187
		c0.722,1.086,2.123,1.975,3.116,1.975s2.177,0.959,2.634,2.134c0.456,1.173,2.159,3.393,3.783,4.933l2.955,2.799l1.462-2.088
		c1.908-2.725,6.937-2.829,9.195-0.191c0.894,1.044,2.202,1.897,2.908,1.897c0.707,0,2.058,0.853,3.002,1.896
		c2.377,2.626,3.876,2.376,5.856-0.976c1.815-3.073,4.674-3.421,4.425-0.538c-0.13,1.498,0.32,1.643,3.319,1.066
		c1.907-0.366,4.14-0.661,4.959-0.655c0.921,0.007,1.464-0.776,1.422-2.052c-0.054-1.652,0.548-2.121,3.033-2.36
		c2.036-0.196,3.626-1.102,4.633-2.638c0.843-1.286,1.761-2.111,2.038-1.833c0.278,0.278,1.267-0.182,2.195-1.022
		c1.574-1.425,1.905-1.294,4.854,1.925c2.638,2.88,3.71,3.41,6.447,3.187c2.781-0.227,3.33,0.059,3.587,1.866
		c0.271,1.909,0.685,2.073,3.912,1.558c2.15-0.344,3.859-0.17,4.231,0.432c0.74,1.198-1.72,7.435-3.871,9.812
		c-1.071,1.183-1.232,2.031-0.548,2.88c0.533,0.662,1.283,2.696,1.667,4.522c0.839,3.989,5.615,8.441,9.114,8.496
		c1.363,0.021,3.615,0.932,5.004,2.024c2.069,1.628,5.573,3.182,8.169,3.622C339.877,404.631,340.6,403.494,341.22,402.059z"/>
	<path id="path2914" fill="#E8F2AD" d="M73.996,400.502c0.628-0.757,2.931-1.674,5.117-2.039c6.974-1.163,18.67-7.929,18.679-10.806
		c0.008-2.297,6.491-14.561,8.681-16.417c1.076-0.913,2.891-1.66,4.032-1.66c2.958,0,4.353-1.778,4.353-5.548
		c0-2.638,0.81-4.036,4.175-7.215c4.718-4.457,14.479-9.996,17.612-9.996c2.238,0,26.176,6.109,30.793,7.859
		c1.536,0.582,4.097,2.175,5.689,3.538c9.483,8.119,20.099,14.682,29.252,18.085c8.689,3.231,9.799,3.445,10.835,2.092
		c1.428-1.863,0.747-3.125-1.685-3.125c-1.209,0-1.841-0.651-1.841-1.896c0-1.392-0.632-1.897-2.371-1.897
		c-1.304,0-2.37-0.427-2.37-0.948s-0.641-0.948-1.423-0.948c-0.973,0-1.423-0.975-1.423-3.084c0-2.555-0.75-3.652-4.377-6.4
		c-2.408-1.825-5.075-4.593-5.927-6.15c-2.752-5.031-6.394-6.509-10.553-4.283c-2.948,1.578-5.014,0.147-4.377-3.033
		c0.304-1.52,1.198-3.409,1.987-4.198c2.788-2.788,1.326-5.822-3.161-6.558c-1.905-0.312-4.317-0.929-5.36-1.369
		c-3.706-1.564-6.109-1.694-7.194-0.388c-1.607,1.938-5.41,1.617-6.776-0.571c-0.651-1.044-1.723-1.897-2.379-1.897
		c-0.657,0-1.974-0.779-2.927-1.731c-2.329-2.329-4.877-3.239-5.021-1.795c-0.063,0.636-0.171,2.863-0.237,4.949
		c-0.104,3.254-0.449,3.84-2.425,4.118c-1.268,0.18-3.112,1.353-4.1,2.608c-2.1,2.67-4.489,2.998-4.532,0.623
		c-0.045-2.471-2.013-4.583-4.949-5.314c-2.281-0.567-2.607-0.374-2.607,1.551c0,3.428-1.826,4.475-7.806,4.475
		c-4.041,0-5.678,0.383-6.076,1.423c-0.745,1.941-2.852,1.784-6.526-0.486c-2.665-1.646-3.164-1.711-3.643-0.464
		c-0.305,0.795-0.307,2.681-0.005,4.191c0.448,2.24,0.094,3.045-1.922,4.366c-1.359,0.891-2.472,2.29-2.472,3.108
		c0,0.819-0.908,2.456-2.019,3.638c-1.521,1.619-1.993,3.269-1.917,6.699c0.137,6.22-0.524,7.87-3.152,7.87
		c-1.793,0-2.117,0.386-1.692,2.012c0.507,1.937,0.28,1.995-6.016,1.568c-3.598-0.244-7.288-0.768-8.201-1.165
		c-1.283-0.558-1.659-0.269-1.659,1.277c0,1.099-0.381,1.998-0.846,1.998s-1.491,1.6-2.281,3.556s-3.823,6.184-6.741,9.396
		c-5.873,6.464-5.633,5.977-4.456,9.073c0.757,1.991,1.516,2.259,6.974,2.46C71.143,401.814,73.173,401.493,73.996,400.502z"/>
	<g id="g2992" transform="matrix(0.948312,0,0,0.948312,-83.88148,51.95865)">
		<path id="path2922" fill="#FFD7A9" d="M389.729,492.46c1.738-2.21,2.448-2.407,6.644-1.842c2.584,0.347,5.704,1.283,6.933,2.079
			c2.071,1.341,2.304,1.266,3.172-1.018c0.712-1.87,1.921-2.622,5.016-3.116c4.52-0.723,4.81-1.162,2.475-3.742
			c-2.171-2.399-0.622-7.339,2.349-7.496c4.325-0.228,10.807-7.075,9.775-10.327c-0.399-1.253,0.011-2.276,1.185-2.96
			c0.987-0.574,1.342-1.058,0.788-1.074c-1.41-0.042-3.787-5.748-2.954-7.094c0.378-0.611,1.535-0.889,2.572-0.617
			c1.038,0.271,2.131,0.098,2.429-0.386c0.3-0.484,2.066-1.601,3.926-2.484c3.033-1.44,3.328-1.938,2.86-4.825
			c-0.301-1.854,0.157-4.843,1.076-7.045c2.038-4.877,2.007-5.579-0.24-5.579c-1.429,0-1.869-0.827-1.978-3.71
			c-0.148-3.94,2.02-8.29,4.132-8.29c0.699,0,1.701-1.462,2.227-3.25c0.738-2.508,1.528-3.269,3.457-3.329
			c6.808-0.215,7.602-0.422,5.749-1.501c-0.962-0.56-1.75-2.164-1.75-3.563c0-1.702-0.661-2.717-2-3.067
			c-1.107-0.289-2-1.364-2-2.407c0-1.036-0.676-1.883-1.5-1.883c-1.777,0-1.847-0.481-0.45-3.093
			c0.578-1.079,1.427-1.729,1.888-1.445c0.459,0.284,1.42-0.187,2.135-1.048c1.068-1.286,1.062-1.713-0.032-2.388
			c-1.58-0.976-0.669-4.024,1.201-4.024c1.778,0,4.999-6.212,4.243-8.183c-0.508-1.323,1.858-3.729,6.142-6.245
			c0.07-0.04,0.438-1.085,0.818-2.323c0.593-1.929,0.325-2.25-1.875-2.25c-1.413,0-2.567,0.45-2.567,1
			c0,1.128-3.3,1.367-4.351,0.316c-0.377-0.377-2.707-0.769-5.181-0.873c-2.995-0.127-5.762-1.067-8.287-2.816
			c-2.084-1.445-4.804-2.626-6.045-2.626c-3.867,0-9.91-5.698-10.643-10.034c-0.354-2.095-1.285-4.055-2.069-4.356
			c-1.614-0.62-1.97-4.61-0.411-4.61c1.092,0,4.976-5.847,4.982-7.5c0.002-0.55-1.984-1-4.414-1c-4.347,0-7.279-1.347-4.833-2.22
			c2.595-0.927,1.105-1.82-2.5-1.497c-3.254,0.291-4.014-0.069-5.75-2.721c-2.001-3.058-3.499-3.941-3.499-2.062
			c0,0.55-0.606,1-1.345,1c-0.74,0-2.159,0.9-3.155,2c-0.996,1.1-2.978,2.014-4.405,2.031c-2.245,0.026-2.359,0.168-0.844,1.049
			c0.962,0.561,1.75,1.672,1.75,2.469c0,1.438-1.183,1.599-14.746,2.006c-2.491,0.075-5.048,0.853-6.185,1.881
			c-1.847,1.672-2.08,1.67-5.004-0.057c-1.686-0.997-3.066-2.165-3.066-2.596c0-0.431-0.674-0.784-1.5-0.784
			c-0.825,0-2.399-0.9-3.499-2c-2.558-2.559-5.631-2.559-7.001,0c-0.588,1.1-1.879,2-2.868,2c-2.082,0-9.132-6.692-9.132-8.667
			c0-0.733-0.874-1.334-1.943-1.334c-1.069,0-2.611-0.954-3.427-2.119c-1.112-1.588-2.501-2.105-5.544-2.063
			c-2.992,0.041-4.434-0.479-5.486-1.979c-1.459-2.083-5.928-4.815-7.963-4.868c-0.625-0.016-2.633-1.391-4.463-3.055
			c-2.507-2.28-3.062-3.344-2.252-4.32c0.826-0.995,0.156-1.708-2.9-3.086c-4.54-2.047-5.578-1.579-9.09,4.103
			c-1.151,1.864-2.732,3.388-3.513,3.388c-2.941,0-1.241,3.131,3.582,6.596c3.676,2.64,5.001,4.245,5.001,6.057
			c0,1.492,0.421,2.205,1.067,1.805c0.588-0.364,1.314,0.284,1.617,1.441c0.324,1.241,1.358,2.101,2.526,2.101
			c1.087,0,2.187,0.805,2.445,1.79c0.257,0.984,1.453,2.221,2.657,2.75c1.427,0.627,2.188,1.847,2.188,3.509
			c0,1.632,1.746,4.507,4.857,8c7.476,8.392,9.335,13.366,10.145,27.134c0.654,11.122,2.144,18.254,4.11,19.67
			c1.729,1.246,6.125,7.689,8.656,12.688c3.113,6.146,4.735,14.404,4.034,20.534c-0.39,3.415,0,5.597,1.537,8.611
			c1.793,3.516,2.594,4.11,6.188,4.592c5.654,0.758,8.302,3.306,7.645,7.352c-0.408,2.514,0.04,3.68,2.213,5.762
			c1.498,1.436,3.125,2.609,3.616,2.609c3.418,0,16.297,13.694,20.364,21.651c1.506,2.945-0.375,8.35-2.904,8.35
			c-2.72,0-3.539,2.104-1.423,3.652C387.505,495.337,387.457,495.348,389.729,492.46z"/>
		<path id="path2848" fill="#FFD7A9" d="M339.568,458.184l-0.004-5.75l-2.066,3.39l-2.067,3.389l-6.741-0.565
			c-7.442-0.624-9.534,0.042-8.51,2.709c0.725,1.889,2.1,1.825,10.222-0.479c3.982-1.13,4.502-1.056,6.472,0.914
			c1.178,1.178,2.267,2.142,2.419,2.142C339.447,463.934,339.57,461.346,339.568,458.184z"/>
		<path id="path2830" fill="#FFD7A9" d="M301.378,435.407c-0.308-0.307-0.867,0.247-1.243,1.234c-0.543,1.425-0.427,1.541,0.56,0.56
			C301.379,436.522,301.686,435.715,301.378,435.407z"/>
	</g>
	<path id="path2918" fill="#FFD7A9" d="M423.508,491.377c1.338-1.338,3.113-3.472,3.945-4.741c1.244-1.898,2.297-2.31,5.921-2.31
		c3.659,0,4.566-0.361,5.344-2.131c0.515-1.173,2.003-2.373,3.307-2.668c5.634-1.273,8.659-2.993,8.026-4.561
		c-0.345-0.851-0.968-4.106-1.385-7.236c-0.692-5.187-9.874-30.904-13.62-38.147c-0.855-1.655-1.556-3.923-1.556-5.038
		c0-2.425-3.49-5.576-6.224-5.62c-5.151-0.084-12.761-5.368-28.211-19.597c-12.251-11.281-17.723-13.54-17.723-7.316
		c0,1.417-0.928,3.564-2.062,4.771c-2.372,2.524-7.422,3.05-7.422,0.772c0-0.782-0.804-1.423-1.786-1.423
		c-1.027,0-2.061-0.905-2.435-2.134c-0.393-1.292-0.841-1.666-1.138-0.948c-0.27,0.652-1.771,1.186-3.338,1.186
		c-2.294,0-3.057-0.554-3.922-2.845c-1.252-3.317-2.166-3.478-5.399-0.948c-1.304,1.02-3.489,1.863-4.855,1.875
		c-2.155,0.019-2.646,0.618-3.703,4.526c-0.671,2.477-1.591,4.988-2.046,5.58c-1.22,1.588,3.02,2.382,6.851,1.283
		c2.831-0.812,3.5-0.626,5.846,1.621c1.457,1.396,2.649,2.916,2.649,3.377c0,1.444-2.806,3.721-4.038,3.276
		c-1.531-0.553-6.394,2.251-6.394,3.686c0,1.408,4.92,2.418,6.117,1.255c0.495-0.481,1.656-0.875,2.579-0.875
		c1.343,0,1.637,0.707,1.47,3.533c-0.201,3.406-0.096,3.534,2.938,3.557c2.501,0.018,4.004,0.931,7.336,4.458
		c2.305,2.439,4.453,4.011,4.774,3.491c0.32-0.519,1.196-0.708,1.947-0.42c0.75,0.287,2.144,0.036,3.097-0.56
		c0.954-0.596,2.438-0.812,3.297-0.482c1.245,0.478,1.439,1.374,0.955,4.401c-0.437,2.733-0.174,4.465,0.934,6.155
		c0.848,1.294,1.54,3.114,1.539,4.045c-0.002,0.932,0.956,3.504,2.128,5.717c1.704,3.217,1.914,4.372,1.048,5.76
		c-0.873,1.398-0.758,1.938,0.598,2.785c1.22,0.761,1.796,2.641,2.101,6.843c0.478,6.606,2.807,9.868,7.102,9.942
		c1.877,0.032,3.386,1.104,5.549,3.94c2.682,3.516,3.146,3.77,4.747,2.599c2.41-1.763,4.459,0.275,4.602,4.577
		c0.112,3.394,3.561,7.336,6.462,7.39C420.349,493.796,422.171,492.715,423.508,491.377z"/>
	<path id="path2898" fill="#E8F2AD" d="M273.156,235.474c1.613-0.894,3.173-1.023,5.216-0.435c2.309,0.666,3.161,0.506,4.101-0.77
		c0.651-0.885,1.186-2.195,1.186-2.91c0-2.342,5.865-13.525,7.806-14.885c1.042-0.729,2.486-1.101,3.208-0.823
		c0.831,0.319,1.314-0.147,1.314-1.27c0-1.186,1.494-2.48,4.504-3.903c5.197-2.456,9.278-2.735,10.063-0.689
		c1.498,3.903,5.876-1.566,4.737-5.919c-0.55-2.102,2.946-4.039,7.29-4.039c3.63,0,10.707-6.211,8.181-7.181
		c-0.871-0.335-1.585-1.427-1.585-2.427c0-1.067-0.979-2.191-2.371-2.72c-1.382-0.526-2.37-1.654-2.37-2.706
		c0-0.992-0.641-2.335-1.423-2.984c-1.803-1.496-1.832-3.695-0.058-4.376c0.75-0.288,1.638-1.769,1.972-3.29
		c0.334-1.521,1-2.766,1.48-2.766c1.683,0,0.854-2.079-1.023-2.57c-1.043-0.272-1.896-1.254-1.896-2.18
		c0-1.833,1.806-2.836,5.104-2.836c5.072,0,10.069-5.136,10.069-10.348c0-0.962,0.647-2.286,1.44-2.943
		c1.174-0.975,1.757-0.908,3.156,0.357c0.944,0.854,2.188,1.554,2.764,1.554c0.575,0,1.317,0.854,1.649,1.898
		c0.478,1.506,1.128,1.773,3.146,1.291c1.398-0.334,3.299-0.994,4.223-1.468c0.923-0.474,2.035-0.642,2.47-0.372
		c0.435,0.269,1.711-0.491,2.835-1.688l2.045-2.176l-2.381-1.274c-1.31-0.701-2.381-1.859-2.381-2.574
		c0-3.682-7.451-14.501-9.987-14.501c-1.706,0-3.79-2.952-4.981-7.055c-1.214-4.179-0.469-5.807,3.313-7.245
		c1.194-0.454,2.172-1.482,2.172-2.284c0-1.304-0.379-1.298-3.556,0.053c-19.514,8.295-27.075,10.459-27.901,7.982
		c-0.176-0.529-3.134-1.225-6.571-1.546c-7.362-0.688-23.744,2.677-27.009,5.546c-1.086,0.955-2.486,3.957-3.113,6.671
		c-1.609,6.973-4.038,9.258-9.839,9.258c-5.647,0-7.74-1.003-12.324-5.905c-2.609-2.791-3.985-3.606-5.216-3.095
		c-0.92,0.382-3.688,0.91-6.15,1.173c-6.061,0.646-6.652,2.7-4.716,16.362c0.555,3.912,0.93,8.605,0.834,10.432
		c-0.15,2.852,0.149,3.364,2.126,3.644c4.104,0.58,6.524,2.894,7.198,6.882c0.706,4.182-0.539,6.544-3.451,6.544
		c-1.957,0-2.298,1-0.838,2.46c2.282,2.282,0.734,19.347-1.978,21.801c-0.995,0.9-1.81,2.284-1.81,3.075s-0.713,2.226-1.583,3.188
		c-1.479,1.635-1.478,1.827,0.039,2.936c1.061,0.775,1.748,2.879,1.986,6.078c0.564,7.582,5.148,10.816,8.67,6.118
		c1.249-1.666,8.138-1.836,11.961-0.295c2.924,1.178,4.4,5.143,2.686,7.209c-0.864,1.042-0.737,1.77,0.579,3.307
		C270.132,237.141,270.145,237.142,273.156,235.474z"/>
	<g id="g2985" transform="matrix(0.948312,0,0,0.948312,-83.88148,51.95865)">
		<path id="path2906" fill="#E8F2AD" d="M466.196,273.574c-0.405-1.612,0.016-2.911,1.328-4.099
			c2.388-2.161,4.384-1.084,3.786,2.045c-0.623,3.259,1.157,1.906,2.863-2.177c1.946-4.657,1.798-7.41-0.399-7.41
			c-0.989,0-3.411-1.688-5.384-3.749c-4.694-4.908-16.728-22.467-17.047-24.874c-0.137-1.032,1.663-5.589,4.001-10.126
			c3.85-7.476,4.896-8.68,11.158-12.844c6.711-4.463,7.012-4.558,10.489-3.3c4.139,1.497,4.491,3.275,1.329,6.707
			c-1.907,2.072-1.184,1.858,4.75-1.403c14.004-7.696,23.727-12.411,25.593-12.411c2.488,0,2.408-0.971-0.593-7.192
			c-1.375-2.85-2.5-5.908-2.5-6.795c0-1.253-0.779-1.521-3.5-1.204c-2.426,0.283-3.499,0.007-3.499-0.901
			c0-1.017-0.267-1.042-1.201-0.109c-1.7,1.7-3.597,1.487-3.976-0.448c-0.272-1.383-0.827-1.223-3.468,1.001
			c-3.57,3.006-5.163,3.311-5.993,1.147c-0.317-0.825-1.541-1.507-2.719-1.515c-3.12-0.023-4.197-1.026-5.746-5.355
			c-0.762-2.128-2.328-4.61-3.48-5.517c-1.152-0.906-2.356-2.765-2.675-4.13c-0.319-1.365-0.894-3.492-1.276-4.725
			c-0.538-1.733,0.012-2.903,2.419-5.151c3.5-3.27,3.776-4.314,1.615-6.108c-0.825-0.685-1.499-2.06-1.499-3.054
			c0-1.008-0.998-2.115-2.25-2.496c-3.127-0.953-5.75-3.438-5.75-5.45c0-1.851,2.76-4.697,6.235-6.43
			c1.222-0.609,2.906-2.946,3.743-5.194c2.002-5.377,3.472-7.016,6.914-7.704c1.769-0.353,3.056-1.368,3.398-2.677
			c0.304-1.16,1.937-2.631,3.63-3.271c2.656-1.002,3.079-1.658,3.079-4.773c0-4.497-1.932-5.588-11.21-6.33
			c-6.169-0.494-6.857-0.349-8.548,1.8c-1.31,1.665-3.332,2.543-7.039,3.052c-2.861,0.393-5.453,1.122-5.761,1.621
			c-1.043,1.688-3.222,0.919-3.805-1.344c-0.742-2.88-5.637-5.413-5.637-2.916c0,0.905-0.759,3.48-1.686,5.721
			c-1.351,3.269-2.438,4.31-5.484,5.261c-2.089,0.652-5.032,1.185-6.537,1.185h-2.738l2.222,1.557
			c2.179,1.526,3.116,5.442,1.302,5.442c-0.506,0-1.209,1.313-1.561,2.916c-0.352,1.604-1.349,3.189-2.215,3.521
			c-1.423,0.547-1.417,0.78,0.061,2.413c0.9,0.995,1.636,2.587,1.636,3.538c0,0.951,0.399,1.484,0.887,1.182
			c1.172-0.724,3.727,2.416,6.703,8.236c0.375,0.733-0.266,2.175-1.461,3.288c-1.171,1.091-2.129,2.325-2.129,2.743
			c0,1.032-6.071,3.158-9.07,3.177c-3.374,0.022-4.395,1.007-4.646,4.485c-0.12,1.651-0.288,4.001-0.376,5.223
			c-0.086,1.222-0.941,2.47-1.9,2.775c-2.119,0.672-7.007-1.052-7.007-2.474c0-1.534-2.888-1.239-7.083,0.726
			c-2.646,1.238-3.906,2.566-4.311,4.54c-0.477,2.323-1.024,2.741-3.263,2.499c-2.4-0.258-3.046,0.41-5.995,6.21
			c-1.818,3.575-3.315,7.042-3.326,7.703c-0.012,0.662-0.564,2.395-1.229,3.851c-1.126,2.471-1.522,2.607-5.909,2.026
			c-2.813-0.374-4.84-0.222-5.044,0.376c-0.187,0.55-1.803,1.29-3.591,1.647c-2.598,0.518-3.25,0.322-3.25-0.977
			c0-0.894-0.675-1.625-1.499-1.625c-1.664,0-2.125-4.93-0.614-6.549c0.487-0.523,0.56-1.833,0.163-2.913
			c-0.688-1.863-0.801-1.837-2.234,0.5c-0.83,1.354-3.816,6.132-6.637,10.618c-5.102,8.113-5.127,8.196-4.904,15.709
			c0.2,6.7,0.451,7.585,2.225,7.844c1.623,0.236,1.995,1.044,1.974,4.291c-0.026,4.022,1.843,6.699,4.079,5.841
			c0.625-0.24,2.354,1.161,3.843,3.111c1.488,1.951,3.372,3.548,4.186,3.548s1.723,0.631,2.018,1.401
			c0.296,0.771,1.406,1.628,2.465,1.906c1.061,0.277,2.319,1.559,2.796,2.848c0.477,1.289,1.266,2.344,1.753,2.344
			s0.949,0.676,1.029,1.5c0.079,0.825,0.192,1.893,0.25,2.373c0.059,0.48,0.782,0.312,1.606-0.373s1.499-0.909,1.499-0.499
			c0,0.409,0.563,0.294,1.25-0.254c2.006-1.603,5.25,0.164,5.25,2.86c0,1.678,0.565,2.395,1.888,2.399
			c1.052,0.003,2.263,1.022,2.736,2.301c0.502,1.354,2.698,3.112,5.363,4.291c2.483,1.098,4.514,2.56,4.514,3.249
			c0,0.826,1.113,1.122,3.265,0.871c2.46-0.287,3.951,0.254,6.045,2.194c2.709,2.512,2.847,2.532,5.485,0.845
			c1.488-0.952,3.181-2.342,3.762-3.089c1.63-2.098,10.453-4,16.799-3.621c7.196,0.428,9.644,1.201,9.644,3.04
			c0,1.147,1.153,1.358,5.5,1.005l5.5-0.447v3.928c0,2.677,0.441,3.928,1.383,3.928c0.761,0,1.619,0.9,1.907,2
			c0.287,1.1,0.838,2,1.224,2S466.522,274.872,466.196,273.574z"/>
		<path id="path2904" fill="#E8F2AD" d="M473.572,217.433c2.355-1.346,2.377-1.43,0.372-1.464c-1.17-0.02-2.688,0.639-3.372,1.464
			C469.018,219.305,470.297,219.305,473.572,217.433z"/>
	</g>
	<g id="g2981" transform="matrix(0.948312,0,0,0.948312,-83.88148,51.95865)">
		<path id="path2900" fill="#E8F2AD" d="M563.837,202.877c1.639-2.604-4.133-10.756-9.234-13.041
			c-5.945-2.661-6.643-2.379-2.694,1.09c1.875,1.646,4.478,5.472,5.785,8.504C560.086,204.976,561.881,205.984,563.837,202.877z"/>
		<path id="path2896" fill="#E8F2AD" d="M538.371,193.734c0.66-0.66,1.2-2.245,1.2-3.522c0-1.506,0.878-2.722,2.5-3.46
			c2.313-1.055,3.593-4.818,1.638-4.818c-1.282,0-0.132-4.761,1.473-6.091c0.764-0.634,1.389-2.538,1.389-4.231
			c0-2.393-0.267-2.81-1.2-1.877c-2.038,2.038-5.744,1.419-6.916-1.154c-0.859-1.885-0.65-3.184,1.041-6.5
			c1.164-2.28,2.448-4.145,2.855-4.145c1.271,0,6.22-5.018,6.22-6.306c0-1.737-8.915-4.599-12.522-4.019
			c-2.843,0.457-3.09,0.23-4.19-3.844c-1.166-4.321-1.159-4.34,3.022-8.645c2.305-2.373,6.89-5.936,10.19-7.917
			c3.3-1.981,6.057-3.639,6.126-3.686c0.069-0.045,0.417-1.033,0.773-2.195c0.575-1.875-0.005-2.294-5.181-3.747
			c-3.206-0.899-10.079-1.88-15.274-2.181c-11.007-0.635-34.393-5.074-37.776-7.168l-2.331-1.445l0.696,5.577
			c0.679,5.426,0.632,5.576-1.727,5.576c-2.444,0-7.399,2.908-5.056,2.968c0.687,0.017,1.25,0.904,1.25,1.969
			c0,1.603-0.691,1.928-4.006,1.882c-4.722-0.065-6.634,1.261-7.499,5.203c-0.754,3.431-4.123,7.978-5.913,7.978
			c-0.7,0-2.02,0.827-2.936,1.838c-1.552,1.716-1.546,1.94,0.096,3.382c0.967,0.849,2.77,1.853,4.008,2.229
			c1.252,0.381,2.25,1.488,2.25,2.495c0,0.996,0.674,2.371,1.499,3.055c2.462,2.043,1.869,6.712-1.099,8.657
			c-2.311,1.514-2.53,2.153-1.977,5.773c0.369,2.417,1.525,4.823,2.848,5.926c1.225,1.022,2.959,3.722,3.851,6.001
			c1.175,2.998,2.28,4.239,4,4.489c1.308,0.189,2.924,0.794,3.592,1.343c0.842,0.692,2.114,0.356,4.154-1.096
			c3.206-2.283,6.13-2.745,6.13-0.971c0,0.742,0.546,0.67,1.609-0.212c1.35-1.12,1.792-1.096,2.751,0.153
			c1.229,1.602,3.018,1.893,4.224,0.687c1.496-1.496,3.417-0.7,3.417,1.414c0,1.189,0.756,3.876,1.68,5.97l1.679,3.806l1.806-2.97
			c1.238-2.035,2.603-2.97,4.336-2.97c4.568,0,14.515,3.299,16.779,5.566C536.53,195.182,536.839,195.266,538.371,193.734z"/>
	</g>
	<g id="g3019" transform="matrix(0.948312,0,0,0.948312,-83.88148,51.95865)">
		<path id="path2938" fill="#EBCEF2" d="M644.571,974.968c0-0.531-0.731-2.499-1.625-4.375c-1.524-3.195-1.505-3.774,0.319-9.284
			c1.635-4.942,2.768-6.494,7.125-9.766c4.402-3.306,5.181-4.384,5.181-7.18c0-2.647-0.439-3.353-2.242-3.609
			c-3.257-0.464-10.895-16.218-11.792-24.32c-0.7-6.331,0.579-10.728,3.443-11.827c1.791-0.687,4.591-9.634,4.591-14.667
			c0-3.66,4.932-11.795,15.699-25.9c2.422-3.172,4.793-7.796,5.754-11.225c0.9-3.208,2.404-6.262,3.342-6.789
			c1.582-0.889,1.571-1.008-0.146-1.67c-1.276-0.491-6.509,1.571-16.836,6.637l-14.983,7.351l-4.799-1.704
			c-7.817-2.776-12.473-2.284-18.209,1.926c-8.914,6.544-27.633,9.809-42.741,7.455c-4.309-0.671-7.663-0.781-7.999-0.26
			c-1.37,2.112-7.363,4.175-12.133,4.175c-4.348,0-6.785-0.877-15.627-5.62c-5.761-3.09-10.627-6.127-10.814-6.749
			c-0.187-0.622-0.623-2.419-0.97-3.992l-0.631-2.862l-6.703,0.705c-7.77,0.818-10.539,2.653-9.742,6.457
			c0.671,3.208-0.018,4.124-4.744,6.311c-5.937,2.745-8.249,2.271-13.24-2.721l-4.47-4.47l-5.911,3.464
			c-4.644,2.722-6.399,4.472-8.187,8.166c-1.316,2.719-2.187,6.211-2.066,8.278c0.116,1.967-0.41,4.425-1.169,5.463
			c-2.507,3.428-0.165,8.967,6.208,14.685c5.3,4.757,5.845,5.004,9.618,4.373c7.525-1.256,13.771-0.538,17.5,2.013
			c1.925,1.317,5.407,2.82,7.738,3.338c4.464,0.992,10.696,5.498,11.541,8.343c0.493,1.663,15.443,9.817,18.001,9.817
			c0.727,0,3.247,2.018,5.598,4.485c2.354,2.469,7.049,5.798,10.448,7.406c5.594,2.646,6.863,2.869,13.503,2.375
			c6.402-0.477,7.856-0.253,11.501,1.769c7.28,4.04,12.083,8.632,15.13,14.463c3.382,6.474,5.061,7.847,15.831,12.943
			c6.847,3.241,8.179,3.56,11,2.637c3.836-1.254,13.611,0.921,15.205,3.384C642.166,976.096,644.571,976.488,644.571,974.968z"/>
		<path id="path2892" fill="#EBCEF2" d="M444.11,967.871c0.781-1.264-2.296-4.938-4.135-4.938c-2.101,0-2.422,1.53-0.806,3.837
			C440.796,969.094,443.046,969.594,444.11,967.871z"/>
		<path id="path2884" fill="#EBCEF2" d="M633.226,825.256c-0.287-0.287-1.024-0.212-1.637,0.167c-0.8,0.495-0.749,1.132,0.184,2.256
			c1.17,1.412,1.332,1.394,1.636-0.168C633.596,826.557,633.513,825.543,633.226,825.256z"/>
	</g>
	<path id="path2936" fill="#EBCEF2" d="M586.708,876.267c1.126-1.667,2.343-5.262,2.704-7.987c0.566-4.263,1.511-5.979,6.76-12.272
		c4.733-5.675,6.811-7.448,9.255-7.907c1.734-0.325,4.725-2.031,6.646-3.791c3.328-3.048,3.493-3.485,3.482-9.235
		c-0.006-3.32-0.619-8.32-1.362-11.112c-1.427-5.359-1.12-7.051,2.141-11.827c2.384-3.491,12.589-9.734,18.928-11.578
		c4.49-1.307,5.493-1.307,9.899,0.002c3.885,1.154,5.062,1.21,5.658,0.269c1.217-1.916,0.896-6.919-0.634-9.851
		c-1.689-3.241-1.944-17.888-0.407-23.425c1.131-4.07,0.572-4.828-5.762-7.826c-1.826-0.864-6.592-4.079-10.591-7.145
		c-6.196-4.748-7.857-5.572-11.233-5.572c-5.245,0-8.783-2.231-10.283-6.484c-2.462-6.979-2.354-7.929,1.696-14.858
		c3.124-5.346,3.847-7.461,3.727-10.9c-0.083-2.347,0.134-5.158,0.48-6.247c0.589-1.853,0.268-1.984-4.967-2.034l-5.596-0.053
		l-0.638,4.806c-0.351,2.643-1.118,5.691-1.705,6.774c-0.587,1.084-0.982,3.144-0.879,4.578c0.224,3.09-1.682,3.486-3.414,0.711
		c-1.225-1.961-4.438-2.564-5.396-1.015c-0.3,0.485-2.915,1.178-5.812,1.54c-4.788,0.599-5.402,0.463-6.773-1.494
		c-3.743-5.345-9.479-6.866-13.526-3.588c-1.992,1.612-2.093,2.087-1.124,5.318c0.584,1.951,1.349,6.738,1.698,10.639
		c0.675,7.525,2.977,12.95,9.445,22.265c3.883,5.591,6.094,12.341,6.094,18.604c0,4.886,2.911,18.278,4.699,21.62
		c0.608,1.136,2.147,2.462,3.419,2.945c1.979,0.753,2.313,1.496,2.313,5.151c0,4.367-2.382,11.79-4.202,13.1
		c-0.558,0.401-3.047,0.467-5.531,0.146c-3.99-0.515-5.065-0.23-9.223,2.438l-4.706,3.02l2.925,3.64l2.925,3.64l-1.454,5.73
		c-0.801,3.152-2.83,8.311-4.51,11.464c-2.878,5.399-3.354,5.819-8.2,7.228c-4.237,1.232-5.009,1.772-4.377,3.068
		c0.423,0.864,0.821,4.825,0.887,8.801c0.065,3.977,0.441,7.753,0.837,8.392c1.41,2.281,6.123,3.346,14.815,3.346h8.824
		L586.708,876.267z"/>
	<g id="g3015" transform="matrix(0.948312,0,0,0.948312,-83.88148,51.95865)">
		<path id="path2930" fill="#EBCEF2" d="M665.761,696.562c2.83-3.546,7.125-5.065,9.99-3.531c1.986,1.063,4.819-2.213,4.819-5.572
			c0-1.117,1.35-3.306,3.001-4.863c1.65-1.557,3-3.165,3-3.572s-1.126-1.798-2.5-3.089c-1.375-1.292-2.499-3.407-2.499-4.699
			c0-1.587-0.812-2.659-2.5-3.302c-1.376-0.522-2.5-1.411-2.5-1.975c0-0.563-0.59-1.025-1.312-1.025
			c-1.597,0-5.847-5.545-5.568-7.264c0.336-2.063-1.897-6.51-3.814-7.6c-1.564-0.888-1.629-1.313-0.49-3.172
			c1.374-2.242,0.724-3.219-3.953-5.956c-2.783-1.628-4.06-14.606-1.597-16.215c0.68-0.444,2.135-0.754,3.236-0.689
			c3.867,0.228,4.496-0.138,6.958-4.038c2.133-3.379,2.332-4.367,1.415-7.001c-0.588-1.686-1.73-3.066-2.537-3.066
			c-0.807,0-2.417-0.508-3.576-1.129c-1.16-0.62-4.082-1.283-6.495-1.474c-4.358-0.343-10.097-3.73-10.209-6.025
			c-0.031-0.62,0.57-1.647,1.334-2.28c0.764-0.634,1.602-2.27,1.863-3.633c0.424-2.217,0.069-2.545-3.36-3.092
			c-2.422-0.387-4.042-1.266-4.396-2.382c-0.309-0.973-1.447-2-2.529-2.283c-2.066-0.541-2.73-4.112-0.966-5.201
			c1.592-0.984,1.165-3.334-1.001-5.5c-2.221-2.222-3.213-2.414-5.763-1.117c-5.347,2.721-7.306,3.332-9.134,2.855
			c-1.116-0.292-2.551,0.098-3.188,0.866c-0.637,0.768-2.354,1.396-3.814,1.396c-1.46,0-3.718,0.745-5.016,1.654
			c-1.866,1.307-2.749,1.412-4.209,0.5c-1.016-0.635-2.768-1.154-3.893-1.154c-1.126,0-2.305-0.674-2.621-1.499
			c-0.317-0.826-1.155-1.5-1.864-1.5s-4.414-1.331-8.234-2.956c-5.307-2.258-7.633-2.77-9.855-2.168
			c-2.641,0.717-2.877,1.132-2.572,4.522l0.336,3.732l-3.833-0.315c-3.18-0.262-4.089-0.856-5.336-3.485l-1.502-3.171l-2.352,1.913
			c-1.856,1.509-2.388,2.99-2.523,7.017c-0.117,3.536-0.7,5.491-1.897,6.367c-0.951,0.694-1.728,1.745-1.728,2.334
			c0,0.588-0.984,1.214-2.187,1.389c-2.161,0.316-2.165,0.342-0.25,2.215c2.939,2.876,11.038,16.099,15.53,25.354
			c3.877,7.991,4.113,8.251,7.491,8.251c1.917,0,4.485-0.654,5.704-1.453c2.063-1.352,2.691-1.128,8.998,3.209
			c8.549,5.878,9.428,8.326,4.544,12.661c-1.908,1.695-4.339,3.632-5.4,4.305c-1.879,1.189-1.877,1.205,0.07,0.575
			c1.1-0.356,2.998-1.285,4.217-2.066c1.494-0.956,3.474-1.205,6.079-0.765c2.875,0.485,4.191,0.254,5.155-0.907
			c0.712-0.857,2.263-1.558,3.449-1.558s3.234-0.756,4.552-1.68c2.36-1.653,2.466-1.601,6.973,3.365
			c6.691,7.374,14.012,26.314,10.173,26.314c-1.229,0-3.051,5.463-2.246,6.73c0.977,1.535,7.44,5.261,9.149,5.274
			c0.825,0.006,5.325,3.586,9.999,7.955c4.675,4.37,8.95,7.966,9.501,7.993C662.622,699.913,664.282,698.416,665.761,696.562z"/>
		<path id="path2864" fill="#EBCEF2" d="M567.13,638.402c-2.128-1.61-4.559-1.948-4.559-0.635c0,1.475,1.271,2.168,3.916,2.135
			C568.975,639.872,568.999,639.816,567.13,638.402z"/>
	</g>
	<path id="path2928" fill="#FFD7A9" d="M404.512,613.386c0.292-0.473,2.533-1.542,4.98-2.376c4.3-1.465,4.747-1.431,13.384,1.021
		c7.215,2.047,9.281,2.319,10.734,1.411c1.603-1.001,3.466-0.906,8.489,0.43c0.824,0.22,2.717-0.649,4.207-1.93
		c2.342-2.012,2.705-2.991,2.671-7.202c-0.038-4.605,0.157-5.005,3.545-7.246c1.972-1.305,3.845-3.051,4.163-3.881
		c1.839-4.792-3.245-17.3-7.032-17.3c-1.005,0-2.091-0.427-2.413-0.948s-1.812-0.948-3.311-0.948c-1.841,0-2.91-0.583-3.295-1.794
		c-0.729-2.298-3.902-3.147-5.329-1.428c-1.366,1.646-7.144,1.744-8.17,0.14c-1.192-1.864-4.765-3.557-7.508-3.557
		c-2.361,0-2.48-0.214-2.021-3.635c0.499-3.718-1.095-5.848-4.376-5.848c-0.726,0-1.843-0.632-2.483-1.403
		c-1.548-1.865-6.496-4.287-8.76-4.287c-0.997,0-2.639-0.441-3.647-0.981c-2.592-1.388-2.55-7.598,0.062-9.229
		c1.043-0.651,1.896-1.792,1.896-2.535c0-2.367,3.667-2.688,7.731-0.677c6.759,3.344,9.165,0.231,4.092-5.292
		c-1.804-1.964-3.281-4.302-3.283-5.196c-0.003-0.895-0.886-2.098-1.962-2.674c-1.558-0.833-1.833-1.616-1.348-3.827
		c0.361-1.645,0.219-2.778-0.35-2.778c-1.829,0-2.262-3.868-0.634-5.667c1.342-1.483,1.39-2.048,0.322-3.85
		c-0.989-1.671-1.003-2.201-0.064-2.54c0.652-0.236,1.186-1.013,1.186-1.726c0-2.126,2.828-3.094,6.527-2.233
		c1.887,0.438,3.935,0.808,4.551,0.819c1.573,0.032,2.655-3.85,1.307-4.684c-0.602-0.371-1.82-2.132-2.709-3.911
		c-1.168-2.341-2.248-3.236-3.9-3.236c-1.856,0-2.485,0.712-3.35,3.793c-0.981,3.497-1.408,3.867-5.465,4.742
		c-2.421,0.521-4.719,1.269-5.106,1.659c-0.389,0.392-2.312,0.712-4.274,0.712c-2.881,0-3.628,0.379-3.873,1.964
		c-0.166,1.08-1.583,2.681-3.147,3.557c-1.564,0.875-2.987,1.911-3.161,2.303c-0.174,0.391-0.921,0.711-1.659,0.711
		c-0.789,0-1.344,0.947-1.344,2.296c0,1.812-0.641,2.436-3.035,2.962c-1.669,0.366-4.263,1.894-5.763,3.395
		c-2.707,2.707-5.427,3.599-5.427,1.779c0-0.521-1.326-0.948-2.946-0.948c-2.229,0-2.813-0.347-2.4-1.423
		c0.3-0.782,0.132-1.422-0.373-1.422s-0.919-1.093-0.919-2.427c0-1.335-0.409-2.174-0.909-1.865
		c-0.501,0.31-1.674,0.152-2.608-0.349c-0.934-0.501-2.444-1.143-3.357-1.425c-0.979-0.303-1.659-1.45-1.659-2.798
		c0-1.257-0.596-2.778-1.323-3.383c-0.729-0.604-1.595-2.546-1.927-4.314c-0.728-3.876-1.521-4.212-7.268-3.075
		c-3.94,0.779-4.784,0.631-7.396-1.301c-3.065-2.266-3.718-4.469-1.872-6.314c0.804-0.804,0.684-1.471-0.475-2.628
		c-0.853-0.854-1.551-2.136-1.551-2.85c0-2.22-1.777-2.535-4.229-0.75c-2.37,1.725-3.213,4.08-1.46,4.08
		c1.216,0,1.241,3.5,0.03,4.249c-0.504,0.312-0.664,1.83-0.355,3.375c0.334,1.671,0.163,2.808-0.424,2.808
		c-0.542,0-2.483,1.455-4.313,3.232c-1.831,1.778-4.175,3.501-5.21,3.829c-2.145,0.681-3.369,3.033-2.015,3.87
		c0.499,0.308,0.907,1.789,0.907,3.291c0,2.501-0.352,2.783-4.182,3.358c-2.955,0.442-4.317,1.146-4.644,2.394
		c-0.496,1.897,0.146,2.567,4.525,4.721c3.913,1.925,9.899,8.259,10.614,11.232c0.328,1.363,1.821,4.933,3.318,7.932
		c2.406,4.82,3.052,5.453,5.565,5.453c3.348,0,14.798,7.262,17.755,11.261c1.075,1.454,2.549,4.401,3.274,6.548
		c0.755,2.234,2.721,5.042,4.594,6.565c6.11,4.968,12.746,11.86,16.123,16.748c3.201,4.636,3.811,5.025,12.609,8.072
		c8.615,2.983,9.534,3.555,13.469,8.385c2.322,2.851,4.222,5.784,4.222,6.519C399.351,614.39,403.647,614.785,404.512,613.386z"/>
	<path id="path2920" fill="#FFD7A9" d="M370.865,518.534c0.537-1.005,0.741-2.443,0.452-3.196c-0.791-2.062,2.612-2.995,4.001-1.097
		c1.345,1.841,3.17,1.052,3.17-1.371c0-1.052,1.791-2.664,4.741-4.271c3.023-1.646,4.741-3.21,4.741-4.316
		c0-1.988,1.797-2.888,5.768-2.888c1.522,0,2.768-0.38,2.768-0.844c0-0.465,1.387-1.037,3.082-1.271
		c6.285-0.869,7.152-1.648,7.283-6.547c0.041-1.546,0.939-3.071,2.356-4c1.594-1.044,2.137-2.087,1.786-3.428
		c-0.543-2.076-1.71-2.507-2.654-0.979c-1.128,1.826-3.182,0.92-5.157-2.276c-2.213-3.582-4.606-4.934-6.096-3.444
		c-1.614,1.613-3.445,1.11-3.445-0.947c0-1.06-0.61-2.16-1.356-2.446c-1.855-0.713-3.385-5.481-3.385-10.557
		c0-3.417-0.359-4.309-1.897-4.71c-2.08-0.544-2.514-3.071-0.818-4.767c0.805-0.805,0.564-1.947-0.948-4.512
		c-1.114-1.888-2.026-4.277-2.026-5.309c0-1.032-0.686-2.923-1.523-4.201c-0.974-1.486-1.393-3.697-1.16-6.131
		c0.34-3.566-0.483-5.21-1.333-2.66c-0.21,0.63-1.974,1.247-3.919,1.371c-3.132,0.201-4.062-0.318-8.128-4.537
		c-4.256-4.415-4.747-4.672-6.716-3.505c-1.679,0.994-2.215,1.01-2.554,0.072c-0.236-0.651-1.261-1.185-2.276-1.185
		c-2.452,0-3.378-2.639-1.431-4.076c1.297-0.958,0.925-1.163-2.337-1.287c-3.521-0.134-4.068,0.171-5.916,3.303
		c-1.12,1.898-1.901,4.248-1.736,5.221c0.166,0.979-0.583,2.389-1.672,3.152c-2.558,1.791-2.603,5.688-0.076,6.489
		c1.335,0.424,1.896,1.435,1.896,3.416c0,2.489,0.213,2.701,1.834,1.833c2.589-1.385,2.908-1.258,2.908,1.161
		c0,2.583-2.447,4.258-7.373,5.046c-2.917,0.466-3.873,1.145-4.7,3.337c-0.571,1.513-1.701,2.751-2.511,2.751
		c-2.139,0-3.58,3.233-2.61,5.856c0.449,1.212,1.193,1.991,1.655,1.729c1.508-0.851,1.498,3.847-0.015,7.63
		c-0.911,2.277-1.248,4.854-0.877,6.711c0.451,2.255,0.188,3.316-1.042,4.216c-1.388,1.016-1.463,1.548-0.482,3.414
		c0.639,1.217,1.739,2.553,2.446,2.97c1.671,0.987,1.627,2.507-0.13,4.448c-1.271,1.404-1.13,1.772,1.396,3.641
		c2.53,1.87,3.265,1.977,7.335,1.064c4.149-0.93,4.661-0.844,6.189,1.044c0.916,1.131,1.666,3.031,1.666,4.222
		s0.64,2.409,1.422,2.71c0.782,0.3,1.423,1.601,1.423,2.891c0,2.835,1.035,3.567,5.209,3.686c2.911,0.083,3.279,0.436,4.312,4.12
		c0.909,3.246,1.613,4.104,3.627,4.413c1.375,0.212,2.805,0.448,3.178,0.526C369.581,520.298,370.327,519.54,370.865,518.534z"/>
	<path id="path2924" fill="#EBCEF2" d="M460.002,575.887c0.628-0.756,2.598-1.854,4.379-2.442c2.755-0.909,3.098-1.332,2.295-2.831
		c-1.456-2.721-1.126-4.546,0.94-5.202c1.035-0.329,3.157-1.872,4.716-3.43c2.371-2.372,3.145-2.665,4.755-1.804
		c1.057,0.565,1.922,1.469,1.922,2.008c0,0.538,0.782,0.73,1.737,0.427c2.089-0.663,4.489,1.736,5.404,5.402
		c0.357,1.435,0.959,2.608,1.335,2.608c0.377,0,2.121-2.027,3.877-4.505s3.748-4.846,4.429-5.263
		c0.68-0.417,1.235-1.392,1.235-2.166c0-0.773,1.233-2.612,2.74-4.086c2.736-2.674,4.897-8.637,3.131-8.637
		c-0.505,0-1.19-1.451-1.522-3.224c-0.673-3.587-1.796-4.777-5.297-5.621c-1.304-0.314-8.822-6.881-16.707-14.593
		c-11.012-10.769-15.292-15.671-18.452-21.134c-4.098-7.082-8.451-17.941-8.459-21.1c-0.005-2.028-1.514-2.097-5.091-0.231
		c-1.494,0.779-3.531,1.417-4.528,1.417c-1.06,0-2.186,0.983-2.713,2.371c-0.865,2.276-2.854,2.845-9.215,2.63
		c-0.636-0.021-1.7,1.192-2.365,2.696c-0.666,1.504-1.787,2.734-2.49,2.734c-0.704,0-1.503,0.854-1.776,1.896
		c-0.351,1.344-1.293,1.896-3.229,1.896c-2.906,0-3.685,1.329-1.312,2.239c1.904,0.73,1.81,4.825-0.157,6.792
		c-1.264,1.263-2.592,1.453-6.638,0.947c-4.235-0.529-5.059-0.39-5.059,0.858c0,0.82-0.512,1.491-1.138,1.491
		c-0.886,0-0.886,0.253,0,1.138c1.568,1.569,1.425,4.082-0.316,5.526c-1.291,1.071-1.229,1.447,0.556,3.346
		c1.563,1.665,1.796,2.538,1.046,3.938c-0.756,1.413-0.569,2.045,0.867,2.942c1.007,0.629,1.83,1.909,1.83,2.846
		c0,1.84,5.123,7.125,7.824,8.072c2.223,0.778,2.124,3.485-0.127,3.485c-0.988,0-2.008,0.847-2.282,1.896
		c-0.656,2.51-4.766,2.507-9.695-0.007l-3.733-1.902l-0.712,1.924c-0.392,1.059-1.362,2.174-2.157,2.479
		c-1.934,0.742-1.885,5.67,0.062,6.418c0.83,0.318,1.896,0.339,2.369,0.047c0.886-0.548,5.712,1.807,8.734,4.26
		c0.938,0.761,2.27,1.467,2.96,1.567c0.689,0.102,2.41,0.942,3.823,1.867c2.21,1.448,2.485,2.125,1.976,4.844
		c-0.502,2.677-0.318,3.16,1.201,3.16c2.307,0,7.774,2.717,7.774,3.863c0,1.417,3.975,1.009,5.741-0.59
		c2.037-1.844,6.242-0.948,7.618,1.623c0.633,1.184,1.586,1.642,2.687,1.292c0.938-0.298,2.223,0.083,2.856,0.847
		c0.633,0.763,1.681,1.185,2.327,0.936c0.646-0.248,1.962,0.418,2.923,1.479C454.938,577.582,458.372,577.851,460.002,575.887z"/>
	<path id="path2934" fill="#EBCEF2" d="M727.704,724.486c0.519-6.754,1.72-9.814,5.215-13.289c2.816-2.8,2.692-5.369-0.613-12.658
		c-2.89-6.372-7.918-11.754-20.141-21.556c-5.182-4.155-6.391-5.66-6.851-8.524c-0.635-3.946-1.849-4.899-10.328-8.112
		c-16.239-6.152-22.71-9.907-31.033-18.011c-8.69-8.461-11.208-9.897-30.369-17.33c-17.812-6.91-19.783-7.798-34.12-15.366
		c-7.552-3.986-14.807-7.621-16.121-8.076c-6.569-2.274-11.696-11.524-9.218-16.63c0.646-1.329,3.525-3.555,6.654-5.145
		c10.036-5.097,12.909-9.802,9.949-16.297c-1.73-3.8-5.768-5.021-13.569-4.108c-3.651,0.427-16.001,1.026-27.444,1.332
		c-23.619,0.63-21.008-0.517-22.022,9.67c-0.41,4.129-0.237,4.979,1.015,4.979c0.879,0,1.511,0.794,1.511,1.896
		c0,1.043-0.561,1.896-1.245,1.896s-2.492,1.302-4.017,2.894c-2.103,2.194-3.462,2.823-5.63,2.607
		c-2.797-0.278-2.852-0.203-2.529,3.508c0.299,3.434,2.661,7.087,4.609,7.129c0.413,0.009,1.711,1.029,2.885,2.268
		c2.196,2.317,2.863,6.636,1.186,7.674c-1.42,0.877-1.143,2.37,0.44,2.37c0.764,0,1.853,0.866,2.418,1.924
		c0.566,1.058,1.383,1.704,1.815,1.438c1.361-0.842,6.706,2.395,6.699,4.058c-0.003,0.875-0.658,2.843-1.457,4.374
		c-1.339,2.566-1.314,2.921,0.312,4.548c1.133,1.133,3.269,1.811,5.962,1.893c2.309,0.07,5.04,0.69,6.068,1.379
		c2.411,1.612,4.097,1.583,5.781-0.101c0.972-0.972,3.221-1.277,7.992-1.087c3.653,0.146,6.642-0.03,6.642-0.393
		c0-0.361,1.143-1.179,2.538-1.814c2.129-0.97,2.673-0.918,3.366,0.322c0.455,0.812,1.543,1.479,2.416,1.479
		c2.119,0,8.014,6.715,7.485,8.526c-0.229,0.787-0.692,2.092-1.028,2.9c-0.782,1.884,5.316,5.084,6.82,3.58
		c1.669-1.669,4.793,0.12,5.86,3.355c0.562,1.705,3.386,5.578,6.273,8.607l5.25,5.508l2.298-2.158
		c2.479-2.329,8.193-3.296,11.352-1.92c1.043,0.454,2.644,1.064,3.557,1.356c1.396,0.446,1.659,1.722,1.659,8.028
		c0,10.486,0.702,13.425,3.206,13.425c1.345,0,2.453,0.977,3.313,2.919l1.292,2.919l3.771-3.926c2.075-2.159,4.782-4.31,6.017-4.778
		c2.897-1.102,19.575,1.065,20.09,2.61c0.206,0.618-1.187,1.775-3.094,2.572c-1.978,0.826-3.297,1.965-3.069,2.648
		c0.22,0.659,3.351,2.905,6.959,4.992c5.758,3.329,7.197,3.765,11.775,3.564c6.833-0.3,18.766,1.477,21.367,3.181
		c3.334,2.185,9.115,15.529,8.861,20.451c-0.118,2.28,0.18,4.834,0.662,5.675c1.744,3.036,9.135,8.381,11.636,8.414
		c1.386,0.019,3.585,0.644,4.89,1.389c1.304,0.745,2.633,1.37,2.954,1.389S727.434,728.007,727.704,724.486z"/>
	<path id="path2926" fill="#EBCEF2" d="M500.915,600.969c1.556,0,3.058-0.812,3.927-2.121c1.229-1.851,1.609-1.953,2.993-0.805
		c1.194,0.991,2.103,1.067,3.686,0.31c1.156-0.553,2.896-1.263,3.868-1.576c1.445-0.468,1.553-0.828,0.595-1.983
		c-0.645-0.777-1.318-3.505-1.498-6.063c-0.367-5.244,1.076-7.293,4.396-6.239c2.909,0.924,7.854-3.822,6.541-6.276
		c-0.98-1.833-0.618-7.627,0.834-13.348c0.834-3.283,0.729-3.554-1.776-4.591c-1.464-0.606-2.875-1.659-3.136-2.34
		c-0.262-0.681-2.746-1.987-5.521-2.903c-2.775-0.917-5.987-2.278-7.138-3.025c-2.287-1.485-4.072-0.931-4.072,1.264
		c0,0.769-1.28,2.649-2.845,4.179c-1.564,1.53-2.845,3.415-2.845,4.188c0,0.774-0.536,1.749-1.191,2.166
		c-1.597,1.017-6.396,7.51-6.396,8.654c0,1.066-2.276,2.062-4.716,2.062c-1.081,0-1.959-0.964-2.37-2.603
		c-0.825-3.288-2.22-4.984-4.099-4.984c-0.808,0-2.267-0.723-3.243-1.605c-1.681-1.521-1.899-1.472-4.144,0.948
		c-1.303,1.404-2.991,2.554-3.752,2.554c-1.788,0-1.771,1.345,0.038,2.846c2.297,1.906,1.629,3.204-2.633,5.116
		c-2.203,0.989-4.935,2.635-6.069,3.656s-2.557,1.552-3.16,1.18c-0.606-0.375-0.409,0.652,0.442,2.299
		c0.847,1.638,1.321,3.331,1.055,3.763c-0.268,0.432-0.091,2.163,0.393,3.847c0.586,2.042,0.533,3.614-0.158,4.721
		c-1.539,2.464,0.264,7.108,2.909,7.497c1.873,0.274,1.982,0.102,0.965-1.528c-0.932-1.492-0.853-2.259,0.419-4.074
		c2.31-3.297,7.161-3.258,15.102,0.12c3.62,1.541,7.19,2.802,7.935,2.802s1.599,0.64,1.899,1.422c0.3,0.782,1.541,1.423,2.759,1.423
		s2.48,0.432,2.806,0.958c0.375,0.607,1.343,0.433,2.638-0.474C497.477,601.613,499.531,600.969,500.915,600.969z"/>
	<path id="path2932" fill="#EBCEF2" d="M593.281,720.902c2.087-0.751,4.898-1.372,6.249-1.381c2.892-0.017,4.196-2.33,5.155-9.137
		c0.763-5.411,2.393-7.097,5.968-6.168c2.98,0.774,10.983,0.581,12.409-0.3c0.543-0.336,1.497-2.406,2.122-4.601
		c0.624-2.195,2.698-6.338,4.608-9.206c3.382-5.076,3.429-5.265,1.736-7.042c-0.956-1.004-1.738-2.391-1.738-3.082
		c0-0.698-1.022-1.256-2.302-1.256c-2.078,0-2.355-0.487-2.838-4.979c-0.295-2.738-0.669-7.539-0.831-10.669
		c-0.261-5.026-0.538-5.726-2.378-5.993c-1.146-0.166-2.082-0.7-2.082-1.185c0-1.35-1.592-1.053-3.249,0.604
		c-0.847,0.847-2.247,1.246-3.253,0.927c-1.021-0.324-2.271,0.049-2.964,0.884c-0.659,0.794-2.006,1.443-2.992,1.443
		c-2.364,0-10.706-8.884-13.137-13.991c-1.684-3.537-2.136-3.899-3.67-2.941c-1.401,0.875-2.722,0.653-6.632-1.113
		c-5.26-2.377-5.644-2.9-3.459-4.713c0.782-0.649,1.423-1.724,1.423-2.387c0-1.625-4.598-6.304-7.835-7.975
		c-2.36-1.218-2.743-1.181-3.881,0.376c-1.081,1.478-2.233,1.657-7.999,1.244c-7.585-0.543-8.396,0.071-6.664,5.04
		c0.855,2.453,0.74,3.522-0.645,5.953c-3.037,5.336-5.885,7.443-9.102,6.737l-2.87-0.631l0.675,6.015
		c0.429,3.813,1.23,6.409,2.191,7.091c0.833,0.592,2.582,1.951,3.886,3.021c2.213,1.815,2.266,2.053,0.797,3.548
		c-1.47,1.495-1.416,1.739,0.805,3.649c1.374,1.182,2.475,3.236,2.603,4.86c0.262,3.313,2.41,7.08,4.038,7.08
		c0.631,0,1.488,0.533,1.905,1.186c0.417,0.651,1.612,1.655,2.655,2.23c1.043,0.574,2.039,2.068,2.214,3.319
		c0.175,1.25,1.401,3.419,2.727,4.819c2.896,3.062,2.466,6.38-1.136,8.739c-1.311,0.858-2.383,2.385-2.383,3.391
		c0,1.007-0.493,2.913-1.096,4.237c-0.892,1.956-0.776,3.117,0.618,6.208c0.942,2.092,2.121,3.803,2.619,3.803
		c0.497,0,2.172-1.067,3.722-2.371c3.053-2.568,4.142-2.881,5.031-1.441c0.361,0.586,1.249,0.507,2.402-0.214
		c1.521-0.949,2.05-0.842,3.132,0.639c0.716,0.979,1.793,1.477,2.395,1.105c0.652-0.403,1.092-0.055,1.092,0.866
		C583.323,722.126,586.528,723.336,593.281,720.902z"/>
	<g id="g3044" transform="matrix(0.948312,0,0,0.948312,-83.88148,51.95865)">
		<path id="path2870" fill="#EBCEF2" d="M201.557,771.277c0.008-0.661-0.831-0.935-1.962-0.64c-1.643,0.429-1.793,0.858-0.892,2.542
			c0.871,1.628,1.255,1.754,1.961,0.64C201.146,773.057,201.547,771.914,201.557,771.277z"/>
		<path id="path2874" fill="#EBCEF2" d="M243.835,787.956c4.27-4.268,4.888-5.372,4.346-7.75
			c-1.192-5.223-1.876-17.988-0.992-18.533c0.485-0.299,5.352,0.453,10.814,1.671c8.361,1.865,10.601,2.799,14.17,5.903
			c2.414,2.1,5.296,3.688,6.697,3.688c2.734,0,5.229-2.34,4.225-3.963c-0.356-0.578,0.955-8.18,2.914-16.894
			c2.63-11.695,3.563-18.174,3.563-24.744c0-4.895,0.674-12.427,1.499-16.738c1.97-10.294,1.949-17.044-0.058-18.71
			c-2.067-1.715-4.443-7.533-4.443-10.878c0-3.142,4.797-11.118,8.061-13.404c2.1-1.471,4.889-7.411,4.924-10.487
			c0.008-0.724-1.11-2.791-2.485-4.594c-1.757-2.304-2.518-4.588-2.558-7.683c-0.036-2.777-1.423-7.546-3.755-12.905l-3.698-8.5
			l-4.245-0.308c-4.912-0.355-5.388-1.516-1.495-3.646c6.757-3.699,6.871-3.952,4.254-9.538c-2.233-4.767-2.883-5.287-13.249-10.589
			c-5.996-3.067-11.544-5.33-12.328-5.028c-0.785,0.301-1.427,1.683-1.427,3.07c0,2.017-1.11,3.149-5.541,5.65
			c-5.033,2.84-7.575,5.478-16.386,17.003c-1.408,1.842-3.262,2.782-6.28,3.187c-2.846,0.382-4.953,1.39-6.287,3.009
			c-2.952,3.582-5.738,4.691-11.791,4.691c-7.287,0-11.46-1.606-13.271-5.109c-0.822-1.59-1.871-2.892-2.331-2.892
			c-1.245,0-3.937,14.672-2.971,16.195c0.455,0.718,0.835,2.453,0.843,3.856c0.02,3.244,1.725,4.947,4.966,4.961
			c2.758,0.01,2.479-0.471,10.145,17.49c3.327,7.792,3.847,10.034,3.873,16.712c0.022,5.218-0.597,9.423-1.91,13
			c-3.508,9.554-3.742,15.005-0.509,11.864c1.647-1.6,6.155-0.021,7.335,2.571c1.154,2.531,0.576,9.419-1.058,12.602
			c-1.037,2.02-4.387,2.34-5.241,0.499c-0.319-0.687-0.329,1.312-0.02,4.443c0.397,4.029-0.032,7.974-1.471,13.5
			c-2.767,10.631-2.878,12.527-0.846,14.558c2.31,2.31,2.221,6.013-0.195,8.2c-1.922,1.739-1.916,1.803,0.439,5.405
			c2.862,4.376,4.218,9.145,2.6,9.145c-0.617,0-2.004-0.551-3.083-1.224c-3.307-2.066-4.403,0.204-2.454,5.076
			c1.969,4.92,3.046,5.232,3.944,1.14c0.705-3.211,3.452-5.33,5.76-4.445c0.773,0.297,2.412,2.966,3.641,5.931
			c2.804,6.765,4.238,8.077,6.965,6.373c1.672-1.045,2.598-0.979,5.328,0.379C237.667,793.599,238.406,793.386,243.835,787.956z"/>
		<path id="path2858" fill="#EBCEF2" d="M203.572,606.875c0-0.583-0.45-0.782-1.001-0.442c-1.281,0.792-1.281,1.5,0,1.5
			C203.122,607.934,203.572,607.457,203.572,606.875z"/>
	</g>
</g>
</svg>
